<?xml version="1.0" encoding="UTF-8"?>
<svg id="Layer_1" data-name="Layer 1" xmlns="http://www.w3.org/2000/svg" viewBox="0 0 95 32.88">
  <defs>
    <style>
      .cls-1 {
        fill: #010101;
      }

      .cls-1, .cls-2 {
        fill-rule: evenodd;
        stroke-width: 0px;
      }

      .cls-2 {
        fill: #fff;
      }
    </style>
  </defs>
  <path class="cls-1" d="M26.74,29.13c-2.95,2.32-6.43,3.68-10.21,3.68C7.84,32.81,0,25.64,0,16.81,0,12.29,1.7,7.85,4.93,4.66,7.83,1.8,11.89,0,15.97,0s7.76,1.11,10.8,3.7C29.63,1.33,33.34.02,37.06.02s7.5,1.28,10.44,3.74C50.43,1.21,54.16.06,57.99.06s7.35,1.34,10.27,3.69c3.12-2.44,6.87-3.68,10.85-3.68,3.55,0,7.16,1.47,9.89,3.71,3.76,3.08,6,7.78,6,12.64,0,9.02-7.25,16.46-16.31,16.46-3.84,0-7.53-1.2-10.44-3.72-2.89,2.28-6.52,3.71-10.23,3.71s-7.59-1.18-10.55-3.72c-2.97,2.34-6.61,3.69-10.41,3.69-3.78,0-7.47-1.19-10.33-3.7h0Z"/>
  <path class="cls-2" d="M23.13,25c-1.46-2.43-2.38-5.25-2.38-8.1,0-3.27.75-6.29,2.42-9.11-2.13-1.47-4.58-2.35-7.19-2.35-6.01,0-10.51,5.57-10.51,11.33s5.37,10.55,11.07,10.55c2.42,0,4.69-.88,6.6-2.32h0ZM26.73,19.87c.44-1.14.59-2.35.59-3.57,0-1.16-.22-2.29-.57-3.39-.35,1.08-.56,2.19-.56,3.32,0,1.25.15,2.46.53,3.64ZM30.33,25c2.13,1.68,4.61,2.34,7.31,2.34,2.31,0,4.44-.96,6.26-2.32-1.68-2.75-2.41-5.76-2.41-8.99,0-2.88.99-5.72,2.44-8.19-2-1.45-4.36-2.37-6.86-2.37s-4.78.84-6.72,2.36c1.75,2.83,2.39,5.97,2.39,9.27,0,2.75-.98,5.59-2.42,7.9h0ZM47.46,19.89c.37-1.12.61-2.35.61-3.53s-.19-2.28-.6-3.4c-.36,1.1-.54,2.25-.54,3.41,0,1.21.07,2.38.53,3.52h0ZM51.03,25.04c2.15,1.61,4.59,2.35,7.26,2.35,2.29,0,4.57-.96,6.35-2.37-1.49-2.5-2.4-5.35-2.4-8.28,0-3.16.82-6.15,2.44-8.85-1.95-1.51-4.36-2.38-6.84-2.38s-4.81.88-6.76,2.37c1.71,2.81,2.4,5.64,2.4,8.96,0,2.89-.95,5.75-2.45,8.2h0ZM68.23,19.9c.37-1.15.56-2.35.56-3.56,0-1.14-.2-2.27-.54-3.35-.34,1.09-.57,2.16-.57,3.31,0,1.24.17,2.43.56,3.61ZM71.86,25.06c1.95,1.49,4.34,2.37,6.8,2.37,6.08,0,10.92-4.97,10.92-11.02s-5.12-10.9-11.02-10.9c-2.44,0-4.76.9-6.7,2.36,1.52,2.58,2.42,5.52,2.42,8.52,0,3.08-1.02,5.97-2.42,8.67h0Z"/>
</svg>