<?xml version="1.0" encoding="UTF-8"?>
<svg id="Layer_1" data-name="Layer 1" xmlns="http://www.w3.org/2000/svg" viewBox="0 0 2260.05 1395.12">
  <defs>
    <style>
      .cls-1 {
        fill: #d9261c;
        fill-rule: evenodd;
        stroke-width: 0px;
      }
    </style>
  </defs>
  <path class="cls-1" d="M1130.93,0C507.23,0,0,312.46,0,698.46s507.23,696.65,1130.93,696.65,1129.12-313.62,1129.12-696.65S1758.1,0,1130.93,0ZM1130.93,133.9c583.24,0,1054.93,250.65,1054.93,564.56s-471.69,562.75-1054.93,562.75S79.62,1009.48,79.62,698.46,551.6,133.9,1130.93,133.9h0ZM322.09,437.89v519.32h133.9v-218.94h226.19v92.28h-197.24v126.67h253.33l76-52.47v-173.71l-34.38-32.57,34.38-30.76v-148.38l-68.76-81.43h-423.42ZM868.56,437.89v255.14l56.09,54.29,124.86-1.81v-123.04l-23.52-21.71v-162.85h-157.43ZM1252.17,437.89v162.86l-23.52,21.71h-150.19v334.76h155.62v-211.71l117.61,1.81,56.09-52.47v-256.95h-155.61ZM1462.07,437.89v519.32h141.14v-389.03h153.8l41.62,47.05v213.52h-166.47v128.47h305.8v-427.03l-77.81-92.29h-398.09ZM455.99,564.56h224.38v92.28h-224.38v-92.28Z"/>
</svg>