<?xml version="1.0" encoding="UTF-8"?>
<svg id="Layer_1" data-name="Layer 1" xmlns="http://www.w3.org/2000/svg" viewBox="0 0 54.24 73.24">
  <defs>
    <style>
      .cls-1 {
        fill: #231f20;
        stroke: #231f20;
        stroke-miterlimit: 10;
      }
    </style>
  </defs>
  <path class="cls-1" d="M3,40.65c-1.38,0-2.5,1.12-2.5,2.5s1.12,2.5,2.5,2.5h.26c-1.59,2.16-2.49,4.85-2.49,7.68,0,3.16,1.1,6.07,2.94,8.28,0,.06-.02.11-.02.17v5.1c0,3.23,2.63,5.86,5.86,5.86h2.74c3.23,0,5.86-2.63,5.86-5.86v-1.09h17.96v1.09c0,3.23,2.63,5.86,5.86,5.86h2.74c3.23,0,5.86-2.63,5.86-5.86v-5.1c0-.06-.01-.11-.02-.16,1.84-2.21,2.94-5.12,2.94-8.28,0-2.84-.9-5.52-2.49-7.68h.26c1.38,0,2.5-1.12,2.5-2.5s-1.12-2.5-2.5-2.5h-3.56c-2.12-4.03-5.71-6.95-10.6-8.49-1.31-.41-2.72.31-3.14,1.63-.42,1.31.31,2.72,1.63,3.14,3.43,1.08,5.87,2.9,7.4,5.5H11.27c1.44-2.43,3.66-4.18,6.75-5.28,1.3-.47,1.97-1.9,1.51-3.19-.46-1.3-1.89-1.98-3.19-1.51-4.46,1.6-7.76,4.41-9.77,8.21h-3.56ZM45.86,47.43c1.64,1.41,2.61,3.56,2.61,5.91,0,3.81-2.54,7-5.92,7.41-.23.03-.47.05-.71.05H12.4c-.24,0-.48-.02-.72-.05-3.37-.41-5.91-3.59-5.91-7.41,0-2.34.97-4.49,2.61-5.91h37.48ZM13.14,66.88c0,.47-.38.86-.86.86h-2.74c-.48,0-.86-.39-.86-.86v-1.75c.76.27,1.55.47,2.38.57.44.06.88.09,1.33.09h.74v1.09h0ZM44.69,67.74h-2.74c-.47,0-.86-.39-.86-.86v-1.09h.75c.43,0,.88-.03,1.32-.08.83-.1,1.62-.3,2.38-.57v1.75c0,.47-.39.86-.86.86Z"/>
  <path class="cls-1" d="M13,57.68c1.95,0,3.54-1.59,3.54-3.54s-1.59-3.54-3.54-3.54-3.54,1.59-3.54,3.54,1.59,3.54,3.54,3.54Z"/>
  <path class="cls-1" d="M41.06,57.68c1.95,0,3.54-1.59,3.54-3.54s-1.59-3.54-3.54-3.54-3.54,1.59-3.54,3.54,1.59,3.54,3.54,3.54Z"/>
  <path class="cls-1" d="M19.52,14.88c0,4.19,3.41,7.6,7.6,7.6s7.6-3.41,7.6-7.6-3.41-7.6-7.6-7.6-7.6,3.41-7.6,7.6ZM27.12,12.28c1.44,0,2.6,1.17,2.6,2.6s-1.17,2.6-2.6,2.6-2.6-1.17-2.6-2.6c0-1.43,1.17-2.6,2.6-2.6Z"/>
  <path class="cls-1" d="M12.45,15.17c0,7.51,11.55,19.72,12.87,21.09.47.49,1.12.77,1.8.77s1.33-.28,1.8-.76c1.32-1.37,12.87-13.58,12.87-21.09,0-8.09-6.58-14.67-14.67-14.67s-14.67,6.58-14.67,14.67ZM36.79,15.17c0,3.63-5.36,10.83-9.67,15.67-4.31-4.84-9.67-12.05-9.67-15.67,0-5.33,4.34-9.67,9.67-9.67s9.67,4.34,9.67,9.67Z"/>
</svg>