<?xml version="1.0" encoding="UTF-8"?>
<svg id="Layer_1" data-name="Layer 1" xmlns="http://www.w3.org/2000/svg" xmlns:xlink="http://www.w3.org/1999/xlink" viewBox="0 0 150.04 44.46">
  <defs>
    <style>
      .cls-1 {
        fill: #a6a6a6;
      }

      .cls-1, .cls-2, .cls-3, .cls-4 {
        stroke-width: 0px;
      }

      .cls-2 {
        fill: url(#linear-gradient);
      }

      .cls-3 {
        fill: #000;
      }

      .cls-4 {
        fill: #fff;
      }
    </style>
    <linearGradient id="linear-gradient" x1="-3.85" y1="-62.28" x2="-3.85" y2="-26.24" gradientTransform="translate(127.19 -232.46) scale(4.45 -4.45)" gradientUnits="userSpaceOnUse">
      <stop offset="0" stop-color="#1a1a1a" stop-opacity=".1"/>
      <stop offset=".12" stop-color="#212121" stop-opacity=".15"/>
      <stop offset=".31" stop-color="#353535" stop-opacity=".23"/>
      <stop offset=".53" stop-color="#575757" stop-opacity=".32"/>
      <stop offset=".78" stop-color="#858585" stop-opacity=".42"/>
      <stop offset="1" stop-color="#b3b3b3" stop-opacity=".51"/>
    </linearGradient>
  </defs>
  <path class="cls-4" d="M149.04,39.21c0,2.35-1.91,4.26-4.26,4.26,0,0,0,0,0,0H5.26c-2.35,0-4.27-1.9-4.27-4.26V5.25c0-2.36,1.91-4.26,4.27-4.26h139.52c2.35,0,4.26,1.91,4.26,4.26h0s0,33.96,0,33.96h0Z"/>
  <path class="cls-1" d="M144.78,44.46H5.26c-2.9,0-5.25-2.35-5.26-5.25V5.25C0,2.35,2.36,0,5.26,0h139.52c2.9,0,5.25,2.35,5.26,5.25v33.95c0,2.89-2.36,5.25-5.26,5.25h0Z"/>
  <path class="cls-3" d="M149.04,39.21c0,2.35-1.91,4.26-4.26,4.26,0,0,0,0,0,0H5.26c-2.35,0-4.27-1.9-4.27-4.26V5.25c0-2.36,1.91-4.26,4.27-4.26h139.52c2.35,0,4.26,1.91,4.26,4.26h0s0,33.96,0,33.96h0Z"/>
  <path class="cls-4" d="M33.5,21.99c-.03-3.58,2.93-5.33,3.07-5.41-1.68-2.45-4.28-2.78-5.2-2.81-2.19-.23-4.31,1.31-5.42,1.31s-2.85-1.29-4.7-1.25c-2.38.04-4.61,1.41-5.83,3.55-2.52,4.36-.64,10.77,1.77,14.3,1.21,1.73,2.62,3.65,4.47,3.59,1.81-.07,2.48-1.15,4.66-1.15s2.79,1.15,4.68,1.11c1.94-.03,3.16-1.73,4.33-3.48,1.4-1.98,1.96-3.93,1.98-4.03-.04-.02-3.77-1.44-3.8-5.73ZM29.94,11.46c.97-1.22,1.64-2.87,1.45-4.55-1.41.06-3.17.97-4.18,2.16-.9,1.05-1.7,2.76-1.49,4.38,1.58.12,3.2-.8,4.22-1.99Z"/>
  <path class="cls-2" d="M144.78,0h-74.73l29.27,44.46h45.46c2.9,0,5.25-2.35,5.26-5.25V5.25c0-2.9-2.36-5.25-5.26-5.25Z"/>
  <path class="cls-4" d="M59.68,35.02h-2.53l-1.38-4.35h-4.81l-1.32,4.35h-2.46l4.76-14.79h2.94s4.79,14.79,4.79,14.79ZM55.35,28.85l-1.25-3.86c-.13-.39-.38-1.32-.75-2.79h-.04c-.15.63-.38,1.56-.7,2.79l-1.23,3.86h3.97ZM71.91,29.56c0,1.81-.49,3.25-1.48,4.3-.88.94-1.98,1.41-3.29,1.41-1.41,0-2.43-.5-3.05-1.51v5.6h-2.37v-11.49c0-1.14-.03-2.31-.09-3.51h2.09l.13,1.69h.04c.79-1.27,1.99-1.91,3.6-1.91,1.26,0,2.31.5,3.15,1.49.84,1,1.26,2.31,1.26,3.93ZM69.49,29.64c0-1.04-.23-1.89-.7-2.57-.51-.7-1.2-1.05-2.06-1.05-.58,0-1.12.2-1.59.58-.48.39-.79.9-.93,1.53-.07.24-.1.48-.11.72v1.78c0,.77.24,1.43.71,1.97.48.53,1.09.8,1.85.8.89,0,1.59-.35,2.09-1.03.5-.69.75-1.6.75-2.72ZM84.18,29.56c0,1.81-.49,3.25-1.48,4.3-.88.94-1.98,1.41-3.29,1.41-1.41,0-2.43-.5-3.05-1.51v5.6h-2.37v-11.49c0-1.14-.03-2.31-.09-3.51h2.09l.13,1.69h.04c.79-1.27,1.99-1.91,3.6-1.91,1.26,0,2.31.5,3.15,1.49.84,1,1.26,2.31,1.26,3.93ZM81.76,29.64c0-1.04-.23-1.89-.7-2.57-.51-.7-1.2-1.05-2.06-1.05-.58,0-1.12.2-1.59.58-.48.39-.79.9-.93,1.53-.07.29-.11.53-.11.72v1.78c0,.77.24,1.43.71,1.97.48.53,1.09.8,1.86.8.89,0,1.59-.35,2.09-1.03.5-.69.75-1.6.75-2.72ZM97.9,30.87c0,1.26-.44,2.28-1.32,3.07-.96.86-2.31,1.3-4.03,1.3-1.59,0-2.87-.31-3.83-.92l.55-1.98c1.04.62,2.18.92,3.42.92.89,0,1.59-.2,2.09-.6.5-.4.75-.94.75-1.61,0-.6-.21-1.11-.62-1.52-.41-.41-1.09-.79-2.04-1.14-2.59-.97-3.89-2.38-3.89-4.24,0-1.21.46-2.21,1.37-2.98.91-.78,2.13-1.16,3.63-1.16,1.35,0,2.47.23,3.36.7l-.59,1.93c-.84-.45-1.78-.68-2.84-.68-.84,0-1.49.21-1.96.61-.39.37-.59.81-.59,1.34,0,.58.23,1.07.68,1.45.39.35,1.11.73,2.15,1.14,1.27.51,2.21,1.11,2.81,1.8.6.69.9,1.54.9,2.57h0ZM105.76,26.13h-2.61v5.18c0,1.32.46,1.97,1.38,1.97.42,0,.78-.04,1.05-.11l.07,1.8c-.47.17-1.08.26-1.84.26-.94,0-1.67-.29-2.2-.86-.53-.57-.79-1.53-.79-2.88v-5.38h-1.56v-1.78h1.56v-1.95l2.33-.7v2.66h2.61s0,1.78,0,1.78ZM117.53,29.6c0,1.64-.47,2.99-1.41,4.04-.98,1.08-2.28,1.62-3.91,1.62s-2.81-.52-3.74-1.56c-.93-1.04-1.39-2.35-1.39-3.93s.48-3.01,1.44-4.06c.96-1.05,2.25-1.58,3.88-1.58s2.82.52,3.78,1.56c.91,1.01,1.36,2.31,1.36,3.9ZM115.07,29.66c0-.98-.21-1.82-.63-2.52-.5-.85-1.21-1.27-2.13-1.27s-1.68.42-2.17,1.27c-.42.7-.64,1.55-.64,2.56s.21,1.82.64,2.52c.51.85,1.23,1.27,2.15,1.27s1.62-.43,2.13-1.29c.44-.72.65-1.56.65-2.54ZM125.24,26.44c-.25-.04-.5-.07-.75-.07-.83,0-1.48.31-1.93.94-.39.56-.59,1.26-.59,2.11v5.6h-2.37v-7.31c0-1.12-.02-2.24-.07-3.36h2.07l.09,2.04h.07c.25-.7.64-1.27,1.19-1.69.49-.37,1.1-.57,1.71-.57.22,0,.42.02.59.04,0,0,0,2.26,0,2.26ZM135.84,29.18c0,.36-.02.72-.09,1.08h-7.11c.03,1.05.37,1.86,1.03,2.42.6.5,1.37.74,2.33.74,1.05,0,2.01-.17,2.88-.5l.37,1.64c-1.01.44-2.2.66-3.58.66-1.65,0-2.95-.49-3.9-1.46-.94-.97-1.42-2.28-1.42-3.92s.44-2.95,1.32-4.02c.92-1.14,2.17-1.71,3.73-1.71s2.7.57,3.49,1.71c.63.9.94,2.02.94,3.36ZM133.58,28.57c.02-.7-.14-1.31-.46-1.82-.41-.66-1.04-.99-1.89-.99-.78,0-1.41.32-1.89.97-.39.51-.63,1.13-.7,1.84,0,0,4.94,0,4.94,0Z"/>
  <path class="cls-4" d="M50.27,15c-.66,0-1.23-.03-1.7-.09v-7.15c.66-.1,1.34-.15,2.01-.15,2.72,0,3.97,1.34,3.97,3.52,0,2.51-1.48,3.87-4.27,3.87ZM50.67,8.52c-.37,0-.68.02-.94.08v5.44c.14.02.41.03.79.03,1.78,0,2.8-1.01,2.8-2.91,0-1.69-.92-2.63-2.64-2.63ZM58.45,15.05c-1.53,0-2.53-1.14-2.53-2.7s1.01-2.77,2.61-2.77c1.51,0,2.53,1.09,2.53,2.69s-1.05,2.78-2.61,2.78ZM58.49,10.43c-.84,0-1.38.79-1.38,1.89s.55,1.87,1.37,1.87,1.37-.84,1.37-1.89-.54-1.87-1.36-1.87ZM69.8,9.69l-1.64,5.24h-1.07l-.68-2.28c-.17-.56-.31-1.12-.42-1.69h-.02c-.09.57-.25,1.14-.42,1.69l-.72,2.28h-1.08l-1.54-5.24h1.2l.59,2.49c.14.59.26,1.15.36,1.68h.02c.09-.44.23-.99.43-1.67l.75-2.5h.95l.71,2.45c.17.59.31,1.18.42,1.73h.03c.08-.54.19-1.11.36-1.73l.64-2.45s1.14,0,1.14,0ZM75.84,14.93h-1.17v-3.01c0-.93-.36-1.39-1.06-1.39s-1.17.59-1.17,1.28v3.12h-1.17v-3.74c0-.46-.01-.96-.04-1.5h1.03l.05.81h.03c.31-.56.95-.92,1.66-.92,1.1,0,1.82.84,1.82,2.21v3.14s0,0,0,0ZM79.05,14.93h-1.17v-7.65h1.17v7.65ZM83.3,15.05c-1.53,0-2.53-1.14-2.53-2.7s1.01-2.77,2.61-2.77c1.51,0,2.53,1.09,2.53,2.69,0,1.64-1.05,2.78-2.61,2.78ZM83.34,10.43c-.84,0-1.38.79-1.38,1.89s.55,1.87,1.37,1.87,1.37-.84,1.37-1.89c0-1.07-.54-1.87-1.36-1.87ZM90.51,14.93l-.08-.6h-.03c-.36.49-.88.72-1.53.72-.94,0-1.61-.66-1.61-1.54,0-1.29,1.12-1.96,3.06-1.96v-.1c0-.69-.37-1.04-1.09-1.04-.52,0-.97.13-1.37.39l-.24-.77c.48-.3,1.09-.45,1.8-.45,1.37,0,2.06.72,2.06,2.17v1.93c0,.53.02.94.08,1.25,0,0-1.05,0-1.05,0ZM90.35,12.32c-1.29,0-1.94.31-1.94,1.06,0,.55.33.82.8.82.59,0,1.14-.45,1.14-1.07v-.81ZM97.14,14.93l-.05-.84h-.03c-.33.64-.9.96-1.68.96-1.26,0-2.2-1.11-2.2-2.68s.97-2.79,2.3-2.79c.7,0,1.2.24,1.48.71h.02v-3.01h1.17v6.24c0,.51.01.98.04,1.41h-1.04ZM96.97,11.85c0-.73-.49-1.36-1.23-1.36-.86,0-1.39.77-1.39,1.84s.55,1.78,1.37,1.78c.73,0,1.25-.64,1.25-1.39,0,0,0-.87,0-.87ZM105.53,15.05c-1.53,0-2.52-1.14-2.52-2.7s1.01-2.77,2.61-2.77c1.51,0,2.53,1.09,2.53,2.69,0,1.64-1.05,2.78-2.61,2.78ZM105.58,10.43c-.84,0-1.38.79-1.38,1.89s.55,1.87,1.37,1.87,1.37-.84,1.37-1.89c0-1.07-.54-1.87-1.36-1.87ZM114.41,14.93h-1.17v-3.01c0-.93-.36-1.39-1.06-1.39s-1.16.59-1.16,1.28v3.12h-1.17v-3.74c0-.46-.01-.96-.04-1.5h1.03l.05.81h.03c.31-.56.95-.92,1.66-.92,1.1,0,1.82.84,1.82,2.21v3.14ZM122.25,10.56h-1.28v2.55c0,.65.22.97.68.97.21,0,.38-.02.52-.05l.03.88c-.23.09-.53.13-.9.13-.92,0-1.47-.51-1.47-1.83v-2.64h-.77v-.87h.77v-.96l1.14-.35v1.31h1.28s0,.87,0,.87ZM128.42,14.93h-1.16v-2.99c0-.94-.35-1.41-1.06-1.41-.6,0-1.17.41-1.17,1.24v3.16h-1.16v-7.65h1.16v3.15h.02c.37-.57.9-.85,1.58-.85,1.11,0,1.79.86,1.79,2.23,0,0,0,3.12,0,3.12ZM134.74,12.59h-3.5c.02.99.68,1.55,1.65,1.55.52,0,.99-.09,1.41-.25l.18.81c-.5.22-1.08.32-1.76.32-1.64,0-2.61-1.04-2.61-2.64s.99-2.82,2.48-2.82c1.34,0,2.18.99,2.18,2.49,0,.18,0,.35-.04.53ZM133.67,11.76c0-.81-.41-1.38-1.15-1.38-.67,0-1.2.58-1.27,1.38h2.43Z"/>
</svg>