<?xml version="1.0" encoding="UTF-8"?>
<svg id="Layer_1" data-name="Layer 1" xmlns="http://www.w3.org/2000/svg" viewBox="0 0 293.91 87.09">
  <defs>
    <style>
      .cls-1, .cls-2, .cls-3, .cls-4, .cls-5, .cls-6, .cls-7, .cls-8, .cls-9, .cls-10 {
        stroke-width: 0px;
      }

      .cls-1, .cls-4 {
        fill: #fbfcfc;
      }

      .cls-1, .cls-5, .cls-6, .cls-7, .cls-8 {
        fill-rule: evenodd;
      }

      .cls-2, .cls-6 {
        fill: #010101;
      }

      .cls-11 {
        fill: none;
        stroke: #040404;
        stroke-width: .1px;
      }

      .cls-3, .cls-5 {
        fill: #040404;
      }

      .cls-7, .cls-9 {
        fill: #fff;
      }

      .cls-8, .cls-10 {
        fill: #cdcfd4;
      }
    </style>
  </defs>
  <g>
    <path class="cls-10" d="M238.36.18H21.27c-.79,0-1.57,0-2.36,0-.66,0-1.32.02-1.98.03-1.45.02-2.9.14-4.32.38-1.43.24-2.81.7-4.1,1.35-1.29.66-2.47,1.52-3.5,2.54-1.03,1.02-1.89,2.2-2.54,3.5-.66,1.29-1.11,2.68-1.35,4.11-.24,1.43-.37,2.87-.39,4.32-.02.66-.03,1.32-.04,1.99v49.88c.01.67.02,1.32.04,1.99.02,1.45.15,2.89.39,4.32.24,1.43.69,2.82,1.35,4.11.66,1.29,1.51,2.47,2.54,3.48,1.02,1.03,2.2,1.89,3.49,2.54,1.29.66,2.68,1.11,4.1,1.36,1.43.23,2.87.36,4.32.38.67.02,1.32.02,1.98.02.79,0,1.57,0,2.36,0h250.3c.77,0,1.56,0,2.34,0,.66,0,1.33-.01,1.99-.03,1.45-.02,2.89-.14,4.31-.38,1.43-.24,2.82-.71,4.12-1.36,1.29-.66,2.47-1.52,3.49-2.54,1.03-1.02,1.89-2.2,2.55-3.48.65-1.29,1.1-2.68,1.34-4.11.24-1.43.37-2.87.4-4.32.01-.67.01-1.32.01-1.99.02-.78.02-1.56.02-2.36V20.75c0-.79,0-1.57-.02-2.36,0-.66,0-1.32-.01-1.99-.03-1.45-.16-2.89-.4-4.32-.23-1.43-.69-2.81-1.34-4.11-1.33-2.59-3.44-4.71-6.04-6.04-1.3-.66-2.69-1.11-4.12-1.35-1.43-.24-2.87-.37-4.31-.38-.66-.01-1.33-.03-1.99-.03-.77,0-1.56,0-2.34,0h-33.2Z"/>
    <path class="cls-4" d="M18.92,84.61c-.66,0-1.3-.01-1.95-.02-1.35-.02-2.7-.14-4.03-.35-1.25-.21-2.45-.62-3.58-1.19-1.11-.56-2.13-1.3-3.01-2.19-.9-.88-1.64-1.9-2.2-3.01-.57-1.12-.97-2.33-1.17-3.58-.22-1.34-.34-2.69-.36-4.05-.02-.45-.04-1.97-.04-1.97V18.41s.02-1.5.04-1.93c.02-1.35.14-2.71.36-4.04.2-1.25.6-2.46,1.18-3.59.56-1.12,1.3-2.14,2.19-3.02.89-.89,1.91-1.63,3.02-2.21,1.12-.56,2.33-.96,3.57-1.17,1.34-.22,2.69-.34,4.05-.36l1.95-.03h254.97l1.97.03c1.34.02,2.69.13,4.01.35,1.25.21,2.47.61,3.61,1.19,2.24,1.16,4.06,2.98,5.21,5.22.56,1.12.95,2.32,1.16,3.56.22,1.35.35,2.71.38,4.07,0,.61,0,1.27,0,1.92.02.81.02,1.58.02,2.36v45.16c0,.78,0,1.55-.02,2.32,0,.7,0,1.34-.01,2-.03,1.34-.15,2.68-.37,4-.2,1.25-.6,2.47-1.17,3.6-.57,1.1-1.31,2.12-2.19,2.99-.88.89-1.9,1.64-3.02,2.21-1.13.57-2.35.98-3.6,1.19-1.33.21-2.68.34-4.03.35-.63.02-1.29.03-1.94.03h-2.34s-252.64-.01-252.64-.01h0Z"/>
    <g>
      <path class="cls-3" d="M71.23,43.1c.05-3.81,2.05-7.32,5.29-9.32-2.06-2.94-5.37-4.73-8.96-4.84-3.77-.4-7.42,2.25-9.34,2.25s-4.92-2.22-8.1-2.15c-4.19.14-8,2.46-10.04,6.12-4.34,7.52-1.1,18.56,3.05,24.63,2.08,2.98,4.51,6.29,7.69,6.18,3.11-.13,4.27-1.98,8.03-1.98s4.81,1.98,8.06,1.91c3.34-.05,5.44-2.99,7.45-5.99,1.5-2.12,2.65-4.46,3.41-6.94-3.97-1.67-6.55-5.56-6.55-9.87ZM65.11,24.95c1.82-2.19,2.72-5,2.5-7.84-2.78.29-5.35,1.62-7.2,3.72-1.82,2.08-2.75,4.79-2.56,7.54,2.81.03,5.49-1.24,7.26-3.43h0Z"/>
      <path class="cls-3" d="M108.58,58.75h-10.21l-2.46,7.24h-4.32l9.67-26.8h4.49l9.68,26.8h-4.4l-2.45-7.24ZM99.42,55.4h8.1l-3.99-11.75h-.11s-3.99,11.75-3.99,11.75ZM136.33,56.22c0,6.07-3.25,9.97-8.16,9.97-2.53.13-4.92-1.2-6.15-3.42h-.09v9.68h-4.01v-26h3.88v3.25h.07c1.28-2.21,3.67-3.54,6.22-3.45,4.96,0,8.23,3.92,8.23,9.97h0ZM132.2,56.22c0-3.95-2.05-6.55-5.16-6.55s-5.12,2.66-5.12,6.56,2.06,6.57,5.12,6.57c3.12,0,5.16-2.58,5.16-6.58h0ZM157.83,56.22c0,6.07-3.25,9.97-8.16,9.97-2.53.13-4.92-1.2-6.15-3.42h-.09v9.68h-4.01v-26h3.88v3.25h.07c1.28-2.21,3.67-3.54,6.22-3.45,4.96,0,8.23,3.92,8.23,9.97h0ZM153.71,56.22c0-3.95-2.05-6.55-5.16-6.55s-5.12,2.66-5.12,6.56,2.06,6.57,5.12,6.57c3.12,0,5.16-2.58,5.16-6.58h0ZM172.04,58.52c.3,2.66,2.88,4.4,6.41,4.4s5.81-1.75,5.81-4.14c0-2.08-1.47-3.32-4.94-4.18l-3.48-.83c-4.92-1.19-7.2-3.49-7.2-7.23,0-4.63,4.03-7.8,9.75-7.8s9.55,3.18,9.68,7.8h-4.05c-.24-2.68-2.45-4.29-5.68-4.29s-5.44,1.63-5.44,4.01c0,1.9,1.41,3.01,4.87,3.86l2.95.73c5.5,1.3,7.78,3.51,7.78,7.43,0,5.01-3.99,8.16-10.34,8.16-5.94,0-9.96-3.07-10.22-7.91,0,0,4.11,0,4.11,0ZM197.16,41.83v4.63h3.71v3.18h-3.71v10.77c0,1.67.74,2.45,2.38,2.45.44-.01.88-.04,1.32-.09v3.15c-.74.14-1.48.2-2.23.19-3.95,0-5.5-1.49-5.5-5.27v-11.2h-2.84v-3.18h2.84v-4.63h4.03ZM203.02,56.22c0-6.15,3.62-10.01,9.27-10.01s9.27,3.86,9.27,10.01-3.59,10.01-9.27,10.01c-5.68,0-9.27-3.84-9.27-10.01ZM217.47,56.22c0-4.22-1.93-6.71-5.18-6.71s-5.18,2.51-5.18,6.71,1.93,6.7,5.18,6.7c3.25,0,5.18-2.46,5.18-6.7h0ZM224.86,46.45h3.83v3.32h.09c.53-2.14,2.49-3.61,4.7-3.53.46,0,.93.05,1.37.15v3.75c-.59-.18-1.19-.26-1.8-.24-1.18-.05-2.32.42-3.12,1.29s-1.19,2.04-1.05,3.21v11.59h-4.01v-19.53h0ZM253.34,60.25c-.54,3.55-3.99,5.98-8.41,5.98-5.68,0-9.21-3.81-9.21-9.92s3.55-10.11,9.04-10.11,8.8,3.71,8.8,9.64v1.37h-13.8v.24c-.13,1.46.37,2.9,1.38,3.95,1.01,1.06,2.42,1.63,3.88,1.58,1.95.18,3.78-.94,4.51-2.75h3.81ZM239.78,54.42h9.77c.07-1.31-.4-2.58-1.31-3.53-.91-.94-2.17-1.46-3.48-1.43-1.32-.01-2.58.51-3.52,1.45-.93.93-1.46,2.2-1.46,3.52Z"/>
    </g>
    <path class="cls-3" d="M98.92,19.02c1.7-.12,3.37.52,4.54,1.77,1.18,1.24,1.73,2.94,1.52,4.63,0,4.12-2.22,6.48-6.06,6.48h-4.65v-12.88h4.65ZM96.27,30.08h2.43c1.22.07,2.4-.41,3.23-1.3s1.2-2.12,1.02-3.33c.16-1.2-.21-2.41-1.04-3.3s-2-1.37-3.21-1.3h-2.43v9.24ZM107.24,27.03c-.17-1.75.67-3.43,2.15-4.35,1.49-.93,3.37-.93,4.85,0,1.49.92,2.32,2.61,2.15,4.35.17,1.75-.66,3.43-2.15,4.36-1.49.93-3.37.93-4.86,0-1.48-.92-2.32-2.61-2.15-4.36ZM114.43,27.03c0-2.11-.95-3.34-2.61-3.34s-2.61,1.23-2.61,3.34.94,3.35,2.61,3.35,2.61-1.23,2.61-3.35ZM128.59,31.9h-1.99l-2.01-7.15h-.15l-2,7.15h-1.97l-2.68-9.72h1.94l1.74,7.41h.14l1.99-7.41h1.84l1.99,7.41h.15l1.73-7.41h1.92l-2.66,9.72ZM133.51,22.18h1.85v1.54h.14c.5-1.13,1.66-1.83,2.9-1.73.96-.07,1.9.3,2.55,1,.66.7.96,1.66.81,2.62v6.29h-1.92v-5.81c0-1.56-.68-2.34-2.1-2.34-.65-.03-1.28.22-1.72.7-.45.47-.66,1.12-.6,1.77v5.68h-1.92v-9.71h0ZM144.82,18.38h1.92v13.51h-1.92v-13.51ZM149.4,27.03c-.17-1.75.67-3.43,2.16-4.35,1.49-.93,3.37-.93,4.85,0,1.49.92,2.33,2.61,2.16,4.35.17,1.75-.66,3.43-2.15,4.36-1.49.93-3.37.93-4.86,0-1.49-.92-2.33-2.61-2.16-4.36ZM156.59,27.03c0-2.11-.95-3.34-2.61-3.34s-2.61,1.23-2.61,3.34.94,3.35,2.61,3.35,2.61-1.23,2.61-3.35ZM160.59,29.15c0-1.75,1.3-2.76,3.61-2.9l2.63-.15v-.84c0-1.03-.68-1.6-1.99-1.6-1.07,0-1.81.39-2.03,1.08h-1.86c.19-1.67,1.77-2.74,3.97-2.74,2.44,0,3.81,1.21,3.81,3.27v6.64h-1.85v-1.37h-.15c-.63,1-1.75,1.58-2.92,1.53-.82.09-1.65-.18-2.26-.74-.61-.55-.97-1.34-.97-2.17ZM166.83,28.32v-.81l-2.38.15c-1.34.09-1.94.54-1.94,1.4s.76,1.38,1.8,1.38c.62.06,1.24-.13,1.71-.53.48-.41.77-.98.81-1.6h0ZM171.26,27.03c0-3.07,1.58-5.02,4.03-5.02,1.24-.06,2.4.61,2.98,1.7h.14v-5.34h1.92v13.51h-1.84v-1.54h-.15c-.62,1.09-1.8,1.75-3.05,1.69-2.47,0-4.03-1.94-4.03-5.02ZM173.24,27.03c0,2.06.97,3.3,2.59,3.3s2.62-1.26,2.62-3.29-1.01-3.3-2.62-3.3-2.59,1.25-2.59,3.29ZM188.27,27.03c-.17-1.75.67-3.43,2.15-4.35,1.49-.93,3.37-.93,4.85,0,1.49.92,2.32,2.61,2.15,4.35.17,1.75-.66,3.43-2.15,4.36-1.49.93-3.37.93-4.86,0-1.49-.92-2.32-2.61-2.15-4.36ZM195.47,27.03c0-2.11-.95-3.34-2.61-3.34s-2.61,1.23-2.61,3.34.94,3.35,2.61,3.35,2.61-1.23,2.61-3.35ZM200.01,22.18h1.85v1.54h.14c.5-1.13,1.66-1.83,2.9-1.73.96-.07,1.9.3,2.55,1,.66.7.95,1.66.81,2.62v6.29h-1.92v-5.81c0-1.56-.68-2.34-2.1-2.34-.65-.03-1.28.22-1.72.7-.44.47-.66,1.12-.59,1.77v5.68h-1.92v-9.71h0ZM219.1,19.76v2.46h2.11v1.61h-2.11v5c0,1.02.42,1.47,1.37,1.47.24,0,.49-.02.73-.05v1.6c-.35.06-.69.1-1.04.1-2.13,0-2.98-.75-2.98-2.63v-5.49h-1.55v-1.61h1.54v-2.46h1.92ZM223.82,18.38h1.9v5.35h.15c.52-1.14,1.7-1.84,2.96-1.74.95-.05,1.88.33,2.53,1.02.65.7.95,1.65.82,2.6v6.27h-1.92v-5.81c0-1.55-.72-2.34-2.08-2.34-.67-.06-1.32.19-1.8.67-.47.47-.71,1.13-.65,1.8v5.68h-1.92v-13.51h0ZM243.37,29.27c-.54,1.83-2.31,3.02-4.21,2.81-1.29.04-2.54-.5-3.4-1.47s-1.26-2.26-1.08-3.55c-.17-1.29.22-2.59,1.08-3.56.86-.98,2.1-1.53,3.4-1.52,2.7,0,4.34,1.85,4.34,4.9v.67h-6.86v.11c-.06.72.19,1.43.68,1.96.49.53,1.19.83,1.91.82.94.11,1.85-.35,2.32-1.18h1.84ZM236.62,26.14h4.91c.05-.66-.18-1.31-.64-1.79-.45-.48-1.09-.74-1.76-.73-.67-.01-1.32.25-1.79.73-.47.47-.73,1.11-.72,1.79Z"/>
  </g>
  <path class="cls-1" d="M283.02,87.08H10.89c-5.99,0-10.89-4.9-10.89-10.89V10.89C0,4.9,4.9,0,10.89,0h272.14c5.99,0,10.89,4.9,10.89,10.89v65.31c0,5.99-4.9,10.88-10.89,10.88"/>
  <g>
    <ellipse class="cls-2" cx="122.67" cy="57.78" rx="9.3" ry="9.26"/>
    <ellipse class="cls-2" cx="142.94" cy="57.78" rx="9.3" ry="9.26"/>
  </g>
  <path class="cls-8" d="M283.02,0H10.89C4.9,0,0,4.9,0,10.89v65.31c0,5.99,4.9,10.89,10.89,10.89h272.14c5.99,0,10.89-4.9,10.89-10.89V10.89c0-5.99-4.9-10.88-10.89-10.88M283.02,1.75c5.04,0,9.14,4.1,9.14,9.14v65.31c0,5.04-4.1,9.14-9.14,9.14H10.89c-5.04,0-9.14-4.1-9.14-9.14V10.89C1.75,5.85,5.85,1.75,10.89,1.75h272.14"/>
  <path class="cls-5" d="M103.24,22.3c0,1.83-.54,3.27-1.62,4.36-1.23,1.29-2.83,1.93-4.8,1.93s-3.49-.65-4.8-1.96c-1.32-1.3-1.98-2.93-1.98-4.86s.66-3.56,1.98-4.86c1.31-1.3,2.92-1.96,4.8-1.96.93,0,1.83.18,2.68.54.85.36,1.53.85,2.04,1.46l-1.15,1.15c-.86-1.03-2.05-1.55-3.58-1.55-1.38,0-2.56.48-3.57,1.45-1.01.97-1.5,2.22-1.5,3.77s.5,2.8,1.5,3.77c1,.97,2.19,1.45,3.57,1.45,1.46,0,2.67-.49,3.65-1.46.63-.64,1-1.51,1.09-2.64h-4.74v-1.57h6.33c.07.34.1.67.1.99"/>
  <path class="cls-11" d="M103.24,22.3c0,1.83-.54,3.27-1.62,4.36-1.23,1.29-2.83,1.93-4.8,1.93s-3.49-.65-4.8-1.96c-1.32-1.3-1.98-2.93-1.98-4.86s.66-3.56,1.98-4.86c1.31-1.3,2.92-1.96,4.8-1.96.93,0,1.83.18,2.68.54.85.36,1.53.85,2.04,1.46l-1.15,1.15c-.86-1.03-2.05-1.55-3.58-1.55-1.38,0-2.56.48-3.57,1.45-1.01.97-1.5,2.22-1.5,3.77s.5,2.8,1.5,3.77c1,.97,2.19,1.45,3.57,1.45,1.46,0,2.67-.49,3.65-1.46.63-.64,1-1.51,1.09-2.64h-4.74v-1.57h6.33c.07.34.1.67.1.99h0Z"/>
  <path class="cls-5" d="M113.27,16.85h-5.95v4.14h5.36v1.57h-5.36v4.14h5.95v1.61h-7.63v-13.06h7.63v1.6Z"/>
  <path class="cls-11" d="M113.27,16.85h-5.95v4.14h5.36v1.57h-5.36v4.14h5.95v1.61h-7.63v-13.06h7.63v1.6Z"/>
  <path class="cls-5" d="M120.35,28.3h-1.68v-11.46h-3.65v-1.61h8.98v1.61h-3.65v11.46h0Z"/>
  <path class="cls-11" d="M120.35,28.3h-1.68v-11.46h-3.65v-1.61h8.98v1.61h-3.65v11.46h0Z"/>
  <path class="cls-5" d="M130.49,28.3h1.68v-13.06h-1.68v13.06Z"/>
  <path class="cls-11" d="M130.49,28.3h1.68v-13.06h-1.68v13.06Z"/>
  <path class="cls-5" d="M139.62,28.3h-1.68v-11.46h-3.65v-1.61h8.98v1.61h-3.65v11.46h0Z"/>
  <path class="cls-11" d="M139.62,28.3h-1.68v-11.46h-3.65v-1.61h8.98v1.61h-3.65v11.46h0Z"/>
  <path class="cls-5" d="M151.92,25.52c.97.98,2.15,1.47,3.55,1.47s2.58-.49,3.55-1.47c.97-.98,1.45-2.23,1.45-3.75s-.49-2.77-1.45-3.75c-.97-.98-2.15-1.47-3.55-1.47s-2.58.49-3.55,1.47-1.45,2.23-1.45,3.75.48,2.77,1.45,3.75M160.26,26.62c-1.29,1.32-2.88,1.98-4.79,1.98s-3.51-.66-4.79-1.98c-1.28-1.32-1.92-2.93-1.92-4.84s.64-3.53,1.92-4.85,2.87-1.98,4.78-1.98,3.49.66,4.78,1.99,1.93,2.94,1.93,4.84c.01,1.91-.63,3.53-1.91,4.85"/>
  <path class="cls-11" d="M151.92,25.52c.97.98,2.15,1.47,3.55,1.47s2.58-.49,3.55-1.47c.97-.98,1.45-2.23,1.45-3.75s-.49-2.77-1.45-3.75c-.97-.98-2.15-1.47-3.55-1.47s-2.58.49-3.55,1.47-1.45,2.23-1.45,3.75.48,2.77,1.45,3.75ZM160.26,26.62c-1.29,1.32-2.88,1.98-4.79,1.98s-3.51-.66-4.79-1.98c-1.28-1.32-1.92-2.93-1.92-4.84s.64-3.53,1.92-4.85,2.87-1.98,4.78-1.98,3.49.66,4.78,1.99,1.93,2.94,1.93,4.84c.01,1.91-.63,3.53-1.91,4.85h0Z"/>
  <path class="cls-5" d="M164.54,28.3v-13.06h2.04l6.35,10.16h.07l-.07-2.52v-7.64h1.68v13.06h-1.76l-6.64-10.66h-.07l.07,2.52v8.14h-1.68Z"/>
  <path class="cls-11" d="M164.54,28.3v-13.06h2.04l6.35,10.16h.07l-.07-2.52v-7.64h1.68v13.06h-1.76l-6.64-10.66h-.07l.07,2.52v8.14h-1.68Z"/>
  <rect class="cls-2" x="227.42" y="39.26" width="4.06" height="27.22"/>
  <polygon class="cls-6" points="264.01 49.07 259.35 60.87 259.21 60.87 254.38 49.07 250 49.07 257.25 65.56 253.12 74.73 257.35 74.73 268.52 49.07 264.01 49.07"/>
  <path class="cls-6" d="M241.46,48.47c-2.94,0-5.99,1.29-7.25,4.17l3.6,1.5c.77-1.5,2.21-2,3.71-2,2.1,0,4.23,1.26,4.27,3.5v.28c-.74-.42-2.31-1.05-4.23-1.05-3.89,0-7.84,2.14-7.84,6.12,0,3.64,3.19,5.99,6.76,5.99,2.73,0,4.23-1.23,5.18-2.66h.14v2.1h3.92v-10.44c0-4.83-3.6-7.53-8.26-7.53Z"/>
  <path class="cls-6" d="M216.25,39.26h-9.73v27.22h4.06v-10.31h5.67c4.5,0,8.93-3.26,8.93-8.45,0-5.19-4.42-8.45-8.93-8.45h0Z"/>
  <path class="cls-6" d="M167.83,50.59h-.14c-.91-1.09-2.67-2.07-4.87-2.07-4.63,0-8.88,4.07-8.88,9.3s4.25,9.22,8.88,9.22c2.21,0,3.96-.98,4.87-2.1h.14v1.33c0,3.54-1.89,5.44-4.94,5.44-2.49,0-4.03-1.79-4.67-3.3l-3.54,1.47c1.02,2.45,3.72,5.47,8.21,5.47,4.77,0,8.8-2.81,8.8-9.65v-16.63h-3.86v1.51h0Z"/>
  <polygon class="cls-6" points="174.5 66.48 178.57 66.48 178.57 39.26 174.5 39.26 174.5 66.48"/>
  <path class="cls-6" d="M197.19,54.41c-.77-2.07-3.12-5.89-7.93-5.89s-8.73,3.76-8.73,9.26c0,5.19,3.93,9.26,9.19,9.26,4.25,0,6.7-2.6,7.72-4.11l-3.16-2.1c-1.06,1.55-2.49,2.56-4.56,2.56s-3.54-.95-4.49-2.81l12.38-5.12-.43-1.05h0Z"/>
  <path class="cls-6" d="M98.55,51.36v3.93h9.4c-.28,2.21-1.02,3.82-2.14,4.94-1.37,1.37-3.51,2.87-7.26,2.87-5.79,0-10.31-4.67-10.31-10.45s4.53-10.45,10.31-10.45c3.12,0,5.4,1.23,7.08,2.8l2.77-2.77c-2.35-2.24-5.47-3.96-9.86-3.96-7.93,0-14.59,6.46-14.59,14.38s6.66,14.38,14.59,14.38c4.28,0,7.5-1.4,10.03-4.03,2.59-2.6,3.4-6.24,3.4-9.19,0-.91-.07-1.75-.21-2.45h-13.22Z"/>
  <g>
    <path class="cls-6" d="M48.57,43.54l-26.37-26.32c-.3.61-.48,1.36-.48,2.27v48.11c0,.92.18,1.68.5,2.29l26.35-26.35Z"/>
    <path class="cls-6" d="M22.27,17.05s.03-.05.04-.07c-.02.03-.03.05-.04.07Z"/>
    <path class="cls-6" d="M50.09,42.02l8.12-8.12-30.96-17.59c-.88-.5-1.7-.74-2.44-.74-.37,0-.72.07-1.04.18l26.32,26.27Z"/>
    <path class="cls-6" d="M69.66,40.4l-9.49-5.39-8.54,8.54,8.54,8.52,9.49-5.39c3.04-1.72,3.04-4.55,0-6.27Z"/>
    <path class="cls-6" d="M50.11,45.08l-26.27,26.28c.94.32,2.11.16,3.4-.56l30.98-17.61-8.12-8.1Z"/>
    <path class="cls-6" d="M22.25,69.98c.12.23.26.43.42.61-.16-.18-.31-.38-.42-.61Z"/>
  </g>
  <g>
    <path class="cls-9" d="M122.67,52.17c-2.8,0-5.23,2.28-5.23,5.61s2.42,5.62,5.23,5.62,5.23-2.32,5.23-5.62-2.42-5.61-5.23-5.61Z"/>
    <path class="cls-9" d="M148.17,57.78c0-3.33-2.42-5.61-5.23-5.61s-5.23,2.28-5.23,5.61,2.42,5.62,5.23,5.62,5.23-2.32,5.23-5.62Z"/>
  </g>
  <path class="cls-1" d="M163.17,63.39c-2.8,0-5.15-2.35-5.15-5.57s2.35-5.65,5.16-5.65,4.94,2.39,4.94,5.65c0,3.22-2.18,5.57-4.95,5.57h0Z"/>
  <path class="cls-7" d="M216.35,52.38h-5.78v-9.33h5.78c3.04,0,4.76,2.52,4.76,4.66,0,2.11-1.73,4.67-4.76,4.67Z"/>
  <path class="cls-7" d="M184.56,57.5c-.1-3.58,2.77-5.4,4.85-5.4,1.61,0,2.98.81,3.43,1.97l-8.28,3.43h0Z"/>
  <path class="cls-1" d="M240.97,63.39c-1.33,0-3.19-.67-3.19-2.31,0-2.1,2.31-2.91,4.31-2.91,1.78,0,2.63.38,3.71.91-.31,2.52-2.48,4.31-4.83,4.31Z"/>
</svg>