<?xml version="1.0" encoding="UTF-8"?>
<svg id="Layer_1" data-name="Layer 1" xmlns="http://www.w3.org/2000/svg" viewBox="0 0 291.44 86.33">
  <defs>
    <style>
      .cls-1 {
        fill: #040404;
      }

      .cls-1, .cls-2, .cls-3 {
        stroke-width: 0px;
      }

      .cls-2 {
        fill: #fbfcfc;
      }

      .cls-3 {
        fill: #cdcfd4;
      }
    </style>
  </defs>
  <path class="cls-3" d="M237.68.01H20.58c-.79,0-1.57,0-2.36,0-.66,0-1.32.02-1.98.03-1.45.02-2.9.14-4.32.38-1.43.24-2.81.7-4.1,1.35-1.29.66-2.47,1.52-3.5,2.54-1.03,1.02-1.89,2.2-2.54,3.5-.66,1.29-1.11,2.68-1.35,4.11-.24,1.43-.37,2.87-.39,4.32-.02.66-.03,1.32-.04,1.99v49.88c.01.67.02,1.32.04,1.99.02,1.45.15,2.89.39,4.32.24,1.43.69,2.82,1.35,4.11.66,1.29,1.51,2.47,2.54,3.48,1.02,1.03,2.2,1.89,3.49,2.54,1.29.66,2.68,1.11,4.1,1.36,1.43.23,2.87.36,4.32.38.67.02,1.32.02,1.98.02.79,0,1.57,0,2.36,0h250.3c.77,0,1.56,0,2.34,0,.66,0,1.33-.01,1.99-.03,1.45-.02,2.89-.14,4.31-.38,1.43-.24,2.82-.71,4.12-1.36,1.29-.66,2.47-1.52,3.49-2.54,1.03-1.02,1.89-2.2,2.55-3.48.65-1.29,1.1-2.68,1.34-4.11.24-1.43.37-2.87.4-4.32.01-.67.01-1.32.01-1.99.02-.78.02-1.56.02-2.36V20.59c0-.79,0-1.57-.02-2.36,0-.66,0-1.32-.01-1.99-.03-1.45-.16-2.89-.4-4.32-.23-1.43-.69-2.81-1.34-4.11-1.33-2.59-3.44-4.71-6.04-6.04-1.3-.66-2.69-1.11-4.12-1.35-1.43-.24-2.87-.37-4.31-.38-.66-.01-1.33-.03-1.99-.03-.77,0-1.56,0-2.34,0h-33.2Z"/>
  <path class="cls-2" d="M18.23,84.44c-.66,0-1.3-.01-1.95-.02-1.35-.02-2.7-.14-4.03-.35-1.25-.21-2.45-.62-3.58-1.19-1.11-.56-2.13-1.3-3.01-2.19-.9-.88-1.64-1.9-2.2-3.01-.57-1.12-.97-2.33-1.17-3.58-.22-1.34-.34-2.69-.36-4.05-.02-.45-.04-1.97-.04-1.97V18.24s.02-1.5.04-1.93c.02-1.35.14-2.71.36-4.04.2-1.25.6-2.46,1.18-3.59.56-1.12,1.3-2.14,2.19-3.02.89-.89,1.91-1.63,3.02-2.21,1.12-.56,2.33-.96,3.57-1.17,1.34-.22,2.69-.34,4.05-.36l1.95-.03h254.97l1.97.03c1.34.02,2.69.13,4.01.35,1.25.21,2.47.61,3.61,1.19,2.24,1.16,4.06,2.98,5.21,5.22.56,1.12.95,2.32,1.16,3.56.22,1.35.35,2.71.38,4.07,0,.61,0,1.27,0,1.92.02.81.02,1.58.02,2.36v45.16c0,.78,0,1.55-.02,2.32,0,.7,0,1.34-.01,2-.03,1.34-.15,2.68-.37,4-.2,1.25-.6,2.47-1.17,3.6-.57,1.1-1.31,2.12-2.19,2.99-.88.89-1.9,1.64-3.02,2.21-1.13.57-2.35.98-3.6,1.19-1.33.21-2.68.34-4.03.35-.63.02-1.29.03-1.94.03h-2.34s-252.64-.01-252.64-.01h0Z"/>
  <g>
    <path class="cls-1" d="M70.55,42.93c.05-3.81,2.05-7.32,5.29-9.32-2.06-2.94-5.37-4.73-8.96-4.84-3.77-.4-7.42,2.25-9.34,2.25s-4.92-2.22-8.1-2.15c-4.19.14-8,2.46-10.04,6.12-4.34,7.52-1.1,18.56,3.05,24.63,2.08,2.98,4.51,6.29,7.69,6.18,3.11-.13,4.27-1.98,8.03-1.98s4.81,1.98,8.06,1.91c3.34-.05,5.44-2.99,7.45-5.99,1.5-2.12,2.65-4.46,3.41-6.94-3.97-1.67-6.55-5.56-6.55-9.87ZM64.42,24.78c1.82-2.19,2.72-5,2.5-7.84-2.78.29-5.35,1.62-7.2,3.72-1.82,2.08-2.75,4.79-2.56,7.54,2.81.03,5.49-1.24,7.26-3.43h0Z"/>
    <path class="cls-1" d="M107.89,58.58h-10.21l-2.46,7.24h-4.32l9.67-26.8h4.49l9.68,26.8h-4.4l-2.45-7.24ZM98.74,55.24h8.1l-3.99-11.75h-.11s-3.99,11.75-3.99,11.75ZM135.64,56.05c0,6.07-3.25,9.97-8.16,9.97-2.53.13-4.92-1.2-6.15-3.42h-.09v9.68h-4.01v-26h3.88v3.25h.07c1.28-2.21,3.67-3.54,6.22-3.45,4.96,0,8.23,3.92,8.23,9.97h0ZM131.52,56.05c0-3.95-2.05-6.55-5.16-6.55s-5.12,2.66-5.12,6.56,2.06,6.57,5.12,6.57c3.12,0,5.16-2.58,5.16-6.58h0ZM157.14,56.05c0,6.07-3.25,9.97-8.16,9.97-2.53.13-4.92-1.2-6.15-3.42h-.09v9.68h-4.01v-26h3.88v3.25h.07c1.28-2.21,3.67-3.54,6.22-3.45,4.96,0,8.23,3.92,8.23,9.97h0ZM153.02,56.05c0-3.95-2.05-6.55-5.16-6.55s-5.12,2.66-5.12,6.56,2.06,6.57,5.12,6.57c3.12,0,5.16-2.58,5.16-6.58h0ZM171.35,58.36c.3,2.66,2.88,4.4,6.41,4.4s5.81-1.75,5.81-4.14c0-2.08-1.47-3.32-4.94-4.18l-3.48-.83c-4.92-1.19-7.2-3.49-7.2-7.23,0-4.63,4.03-7.8,9.75-7.8s9.55,3.18,9.68,7.8h-4.05c-.24-2.68-2.45-4.29-5.68-4.29s-5.44,1.63-5.44,4.01c0,1.9,1.41,3.01,4.87,3.86l2.95.73c5.5,1.3,7.78,3.51,7.78,7.43,0,5.01-3.99,8.16-10.34,8.16-5.94,0-9.96-3.07-10.22-7.91,0,0,4.11,0,4.11,0ZM196.47,41.66v4.63h3.71v3.18h-3.71v10.77c0,1.67.74,2.45,2.38,2.45.44-.01.88-.04,1.32-.09v3.15c-.74.14-1.48.2-2.23.19-3.95,0-5.5-1.49-5.5-5.27v-11.2h-2.84v-3.18h2.84v-4.63h4.03ZM202.33,56.05c0-6.15,3.62-10.01,9.27-10.01s9.27,3.86,9.27,10.01-3.59,10.01-9.27,10.01c-5.68,0-9.27-3.84-9.27-10.01ZM216.78,56.05c0-4.22-1.93-6.71-5.18-6.71s-5.18,2.51-5.18,6.71,1.93,6.7,5.18,6.7c3.25,0,5.18-2.46,5.18-6.7h0ZM224.17,46.28h3.83v3.32h.09c.53-2.14,2.49-3.61,4.7-3.53.46,0,.93.05,1.37.15v3.75c-.59-.18-1.19-.26-1.8-.24-1.18-.05-2.32.42-3.12,1.29s-1.19,2.04-1.05,3.21v11.59h-4.01v-19.53h0ZM252.66,60.08c-.54,3.55-3.99,5.98-8.41,5.98-5.68,0-9.21-3.81-9.21-9.92s3.55-10.11,9.04-10.11,8.8,3.71,8.8,9.64v1.37h-13.8v.24c-.13,1.46.37,2.9,1.38,3.95,1.01,1.06,2.42,1.63,3.88,1.58,1.95.18,3.78-.94,4.51-2.75h3.81ZM239.1,54.25h9.77c.07-1.31-.4-2.58-1.31-3.53-.91-.94-2.17-1.46-3.48-1.43-1.32-.01-2.58.51-3.52,1.45-.93.93-1.46,2.2-1.46,3.52Z"/>
  </g>
  <path class="cls-1" d="M98.24,18.85c1.7-.12,3.37.52,4.54,1.77,1.18,1.24,1.73,2.94,1.52,4.63,0,4.12-2.22,6.48-6.06,6.48h-4.65v-12.88h4.65ZM95.59,29.91h2.43c1.22.07,2.4-.41,3.23-1.3s1.2-2.12,1.02-3.33c.16-1.2-.21-2.41-1.04-3.3s-2-1.37-3.21-1.3h-2.43v9.24ZM106.55,26.87c-.17-1.75.67-3.43,2.15-4.35,1.49-.93,3.37-.93,4.85,0,1.49.92,2.32,2.61,2.15,4.35.17,1.75-.66,3.43-2.15,4.36-1.49.93-3.37.93-4.86,0-1.48-.92-2.32-2.61-2.15-4.36ZM113.75,26.87c0-2.11-.95-3.34-2.61-3.34s-2.61,1.23-2.61,3.34.94,3.35,2.61,3.35,2.61-1.23,2.61-3.35ZM127.9,31.73h-1.99l-2.01-7.15h-.15l-2,7.15h-1.97l-2.68-9.72h1.94l1.74,7.41h.14l1.99-7.41h1.84l1.99,7.41h.15l1.73-7.41h1.92l-2.66,9.72ZM132.82,22.01h1.85v1.54h.14c.5-1.13,1.66-1.83,2.9-1.73.96-.07,1.9.3,2.55,1,.66.7.96,1.66.81,2.62v6.29h-1.92v-5.81c0-1.56-.68-2.34-2.1-2.34-.65-.03-1.28.22-1.72.7-.45.47-.66,1.12-.6,1.77v5.68h-1.92v-9.71h0ZM144.13,18.22h1.92v13.51h-1.92v-13.51ZM148.71,26.87c-.17-1.75.67-3.43,2.16-4.35,1.49-.93,3.37-.93,4.85,0,1.49.92,2.33,2.61,2.16,4.35.17,1.75-.66,3.43-2.15,4.36-1.49.93-3.37.93-4.86,0-1.49-.92-2.33-2.61-2.16-4.36ZM155.91,26.87c0-2.11-.95-3.34-2.61-3.34s-2.61,1.23-2.61,3.34.94,3.35,2.61,3.35,2.61-1.23,2.61-3.35ZM159.9,28.98c0-1.75,1.3-2.76,3.61-2.9l2.63-.15v-.84c0-1.03-.68-1.6-1.99-1.6-1.07,0-1.81.39-2.03,1.08h-1.86c.19-1.67,1.77-2.74,3.97-2.74,2.44,0,3.81,1.21,3.81,3.27v6.64h-1.85v-1.37h-.15c-.63,1-1.75,1.58-2.92,1.53-.82.09-1.65-.18-2.26-.74-.61-.55-.97-1.34-.97-2.17ZM166.14,28.15v-.81l-2.38.15c-1.34.09-1.94.54-1.94,1.4s.76,1.38,1.8,1.38c.62.06,1.24-.13,1.71-.53.48-.41.77-.98.81-1.6h0ZM170.58,26.87c0-3.07,1.58-5.02,4.03-5.02,1.24-.06,2.4.61,2.98,1.7h.14v-5.34h1.92v13.51h-1.84v-1.54h-.15c-.62,1.09-1.8,1.75-3.05,1.69-2.47,0-4.03-1.94-4.03-5.02ZM172.55,26.87c0,2.06.97,3.3,2.59,3.3s2.62-1.26,2.62-3.29-1.01-3.3-2.62-3.3-2.59,1.25-2.59,3.29ZM187.59,26.87c-.17-1.75.67-3.43,2.15-4.35,1.49-.93,3.37-.93,4.85,0,1.49.92,2.32,2.61,2.15,4.35.17,1.75-.66,3.43-2.15,4.36-1.49.93-3.37.93-4.86,0-1.49-.92-2.32-2.61-2.15-4.36ZM194.78,26.87c0-2.11-.95-3.34-2.61-3.34s-2.61,1.23-2.61,3.34.94,3.35,2.61,3.35,2.61-1.23,2.61-3.35ZM199.32,22.01h1.85v1.54h.14c.5-1.13,1.66-1.83,2.9-1.73.96-.07,1.9.3,2.55,1,.66.7.95,1.66.81,2.62v6.29h-1.92v-5.81c0-1.56-.68-2.34-2.1-2.34-.65-.03-1.28.22-1.72.7-.44.47-.66,1.12-.59,1.77v5.68h-1.92v-9.71h0ZM218.41,19.59v2.46h2.11v1.61h-2.11v5c0,1.02.42,1.47,1.37,1.47.24,0,.49-.02.73-.05v1.6c-.35.06-.69.1-1.04.1-2.13,0-2.98-.75-2.98-2.63v-5.49h-1.55v-1.61h1.54v-2.46h1.92ZM223.14,18.22h1.9v5.35h.15c.52-1.14,1.7-1.84,2.96-1.74.95-.05,1.88.33,2.53,1.02.65.7.95,1.65.82,2.6v6.27h-1.92v-5.81c0-1.55-.72-2.34-2.08-2.34-.67-.06-1.32.19-1.8.67-.47.47-.71,1.13-.65,1.8v5.68h-1.92v-13.51h0ZM242.68,29.1c-.54,1.83-2.31,3.02-4.21,2.81-1.29.04-2.54-.5-3.4-1.47s-1.26-2.26-1.08-3.55c-.17-1.29.22-2.59,1.08-3.56.86-.98,2.1-1.53,3.4-1.52,2.7,0,4.34,1.85,4.34,4.9v.67h-6.86v.11c-.06.72.19,1.43.68,1.96.49.53,1.19.83,1.91.82.94.11,1.85-.35,2.32-1.18h1.84ZM235.94,25.98h4.91c.05-.66-.18-1.31-.64-1.79-.45-.48-1.09-.74-1.76-.73-.67-.01-1.32.25-1.79.73-.47.47-.73,1.11-.72,1.79Z"/>
</svg>