<?xml version="1.0" encoding="UTF-8"?>
<svg id="Layer_1" data-name="Layer 1" xmlns="http://www.w3.org/2000/svg" viewBox="0 0 70.97 95.99">
  <defs>
    <style>
      .cls-1 {
        fill: #010101;
      }

      .cls-1, .cls-2, .cls-3, .cls-4, .cls-5 {
        fill-rule: evenodd;
        stroke-width: 0px;
      }

      .cls-2 {
        fill: #35a457;
      }

      .cls-3 {
        fill: #fff;
      }

      .cls-4 {
        fill: #cd2032;
      }

      .cls-5 {
        fill: #fcef37;
      }
    </style>
  </defs>
  <path class="cls-3" d="M70.97,8.13v1.83L35.48,3.74,0,9.96v-1.83L35.48,1.87l35.49,6.26Z"/>
  <path class="cls-2" d="M70.97,6.26v1.87L35.48,1.87,0,8.13v-1.87L35.48,0l35.49,6.26Z"/>
  <path class="cls-4" d="M70.97,9.96L35.48,3.74,0,9.96v6.31s.31-.17.31-.17c.13-.07,12.72-7.05,35.24-7.05s34.97,6.98,35.1,7.05l.3.17v-6.31Z"/>
  <path class="cls-5" d="M35.55,10.26c20.34,0,32.26,5.72,34.19,6.73v18.17c0,9.9-2.33,19.77-6.93,29.33-10.06,20.88-25.21,29.08-27.32,30.15-2.12-1.07-17.27-9.27-27.34-30.15C3.55,54.93,1.22,45.06,1.22,35.16v-18.16c1.95-1,13.99-6.73,34.33-6.73h0Z"/>
  <path class="cls-1" d="M.31,16.09L0,16.27v18.89C0,45.25,2.37,55.29,7.05,65.02c10.98,22.8,28.01,30.78,28.18,30.86l.25.12.25-.12c.17-.08,17.19-8.06,28.17-30.86,4.68-9.72,7.05-19.77,7.05-29.86v-18.89l-.3-.17c-.13-.07-12.57-7.05-35.1-7.05S.43,16.02.31,16.09h0ZM35.55,10.26c20.34,0,32.26,5.72,34.19,6.73v18.17c0,9.9-2.33,19.77-6.93,29.33-10.06,20.88-25.21,29.08-27.32,30.15-2.12-1.07-17.27-9.27-27.34-30.15C3.55,54.93,1.22,45.06,1.22,35.16v-18.16c1.95-1,13.99-6.73,34.33-6.73h0Z"/>
  <path class="cls-1" d="M40.88,77.04c.59.41.16,1.12-.28,1.23-.46.12-.84-.38-1.07.17-.12.3.21,2.55,2.52,2.55,2.15,0,3.18-2.76,3.38-3.18.2-.42.33-.94.13-.94-.94,0-1.22.56-1.22.56,0,0-.07-.54.4-.95.39-.33.9-.25,1.08-.25.39,0,.32-.29.56-.85.53-1.34.9-1.4,1.24-2,.29-.5-.25-.69-1.32-.79-1.07-.1-1.64-.06-2.12.01-.48.07-.95.26-1.25.99-.16.4.13.79.69.68.56-.1,1.1-.53,1.1-.53,0,0-.25,1-1.09,1.21-.77.19-1.69-.28-1.56-1.06.16-1.02.86-1.76,2.14-2.01,1.28-.26,2.56-.06,3.7.22,1.14.29,1.97.11,3.03.05,2.28-.12,3.69-.66,3.69-.66,0,0-1.03.83-2.45,1.22-1.42.39-2.69.23-3.1.39-.33.14-.8.8-1.19,1.55-.36.69-.73,1.49-.57,1.49,1.32.05,1.81-.24,1.81-.24,0,0-.26.57-.89.84-.44.18-1.18.18-1.18.18,0,0-.33.84-.71,1.61-.38.76-1,1.95-2.11,2.54-1.12.59-3.26,1.32-4.61-.62-1.43-2.04-.12-4.35,1.25-3.41h0ZM24.32,77.3c.26.67-.3,1.03-.62,1.03s-.73-.24-.82.17c-.08.4.87,2.49,3.06,2.49s3.21-1.27,3.06-2.41c-.17-1.27-2.19-1.78-3.8-2.62-.79-.41-2.57-.69-2.57-2.35,0-3.56,5.41-1.28,5.41-1.28,0,0,.01-.44.26-.47.12-.01.37-.06.45.34.08.41.44,2.54.44,2.54,0,0-.8-1.63-2.98-2.34-.39-.14-2.07-.46-2.06.88.02.79.99,1.15,2.66,1.8,2.2.86,3.33,1.67,2.81,3.99-.5,2.22-2.67,2.59-3.73,2.59s-3.48-.74-3.48-3.18c0-1.73,1.69-1.69,1.9-1.17h0ZM35.88,63.93l.89.42c.51.2.84.11.96.06.12-.05.59-.56.7-.99.05-.17.02-.33-.07-.44-.35-.41-.96-2.29-1.19-3.31-.08-.38.02-1.42.1-2.26.07-.72.11-1.17.08-1.28-.06-.18-.33-.35-.63-.54l-.48-.33c-.26-.21-.27-.5-.28-.81l-.05-.48c-.11-.45-2.39-2.77-2.74-2.79-.51-.03-.64.53-.68.86-.02.2.21,1.08.41,1.86l.23.94c.23,1.48,1.81,4.09,2.48,5.2l.32.54c.14.31.08.56-.16.7-.24.14-2.28-.08-3.26-.3-.42-.1-.94-.31-1.44-.51-.58-.23-1.13-.45-1.44-.47-.37-.02-.55.06-.68.12l-.22.06-.22-.07c-.27-.12-.78-.34-2.16-.46-2.01-.19-2.17.22-2.25.44-.1.28,1.13,1.59,1.35,1.76.28.23,1.19.57,1.74.48.63-.1,1.66-.23,1.79-.2l.21.13.19.14c.17.07,1.3.13,1.64.15.39.02,1.42.23,2.18.39l.84.17c.33.06,1.18.48,1.87.83h0Z"/>
  <path class="cls-1" d="M56.72,37.8c-.04-.06-.08-.06-.11-.05-.02,0-.05.03-.06.09-.04.28-.39,1-.67,1.11-.57.22-.86.88-1.07,1.37-.11.25-.21.49-.3.49-.04,0-.08-.04-.12-.12-.35-.6-.15-1.52,0-2.26l.04-.18c.13-.63.86-1.5,1.3-2.03l.19-.23c.3-.37.37-1.63.32-1.72-.02,0-.03,0-.04.02,0,0-.01.01-.02.02h0s0,0,0,0c-.02.02-.03.02-.05.09-.08.39-.8,1.19-2.02,2.25-.25.22-.54.61-.77.93-.15.21-.33.45-.38.46-.3-1.62.25-2.55.51-3l.12-.23c.52-1.41,1.86-2.48,1.87-2.49.02-.04.02-.08-.01-.11-.05-.04-.15-.02-.29.05l-.08.04c-.47.23-1.87.91-2.74,2.56-.62,1.19-.86,2.52-.86,3.52,0,.51.06.94.17,1.22.3.81.83,2.82,1,3.61.1.49.12,2.17.12,3.22,0,.51,0,.87,0,.89,0,0-.27.85-.27.85,0,0-.13.68-1.22,1.79-1.1,1.12-2.32,1.48-2.33,1.48-.49.04-.94.02-.95-.05,0-1.28-2.19-4.26-3.31-5.24-1.14-1-2.06-1.72-3.61-2.67-1.58-.96-3.34-5-3.36-5.04l-.15-.55s-.09-1.09-.11-1.37c.06.03.13.08.13.08l.54.31.62.24s.81.16.81.16c0,0,.45.23.45.23l.42.27.65.47.67.35s.8.04.8.04l.02-.06s-.91-.43-.92-.43c0-.01-.33-.58-.33-.58-.13-.18-.26-.37-.38-.55-.01,0-.47-.28-.47-.28-.2-.03-.39-.06-.59-.08,0,0-.12-.1-.17-.16.05-.03.15-.09.15-.09,0,0,.63.08.63.08,0,0,.56.39.56.39l.61.47s.58.23.58.23l.07.03-.25-.65c-.16-.15-.31-.3-.47-.45l-.69-.59s-.54-.28-.54-.28c0,0-.58-.19-.58-.19,0,0-.61-.39-.61-.39,0,0,0-.04.01-.08.08.03.84.34.84.34,0,0,.73.2.73.2,0,0,.61.23.61.23,0,0,.88.43.88.43,0,0,.74.16.74.16.01,0,.9-.16.9-.16.01,0,.86-.59.86-.59,0-.02.17-.37.17-.37l.03-.08-.27.11s-.77.39-.77.39l-.53.12s-.6-.12-.6-.12h0s-.49-.46-.49-.46l-.69-.67-.62-.32s-.74-.12-.74-.12c0,0-.44-.23-.45-.23,0,0,0,0,0-.02,0-.05-.01-.17-.02-.23l.92.08,1-.08s.57.12.57.12l.57.24.59.08h.11s-.65-.61-.65-.61c0,0-.66-.47-.66-.47,0,0-.55-.2-.55-.2,0,0-.91-.08-.93-.08,0,0,0-.02,0-.04,0-.05,0-.13-.01-.17l.42-.07s.68.16.68.16c0,0,.64.39.64.39l.7.24s1.02-.16,1.02-.16h.06s-.3-.41-.3-.41c-.02-.01-.52-.17-.52-.17,0,0-.41-.31-.41-.31l-.62-.43s-.47-.16-.47-.16c0,0-.73-.12-.73-.12,0,0-.36-.34-.36-.34.01,0,.03-.12.04-.17l.38.11.49.23.7.22-.15-.31-.27-.28-.24-.31.1-.03s.74.39.74.39l.58.2s.45.42.45.42c0,0,.85.48.85.48l.09.05-.15-.41s-.46-.6-.46-.6l-.38-.66s-.7-.71-.7-.71c0,0-.89-.48-.89-.48,0,0-.34-.38-.34-.38-.21-.21-.41-.42-.62-.63,0,0-.06-.22-.1-.33.1.03.6.2.6.2l.69.19s.49.31.49.31c0,0,.41.5.41.5.01.01.67.29.67.29l1.67.22h.1s-.46-.47-.46-.47c-.01,0-.9-.4-.9-.4l-.53-.39s-.3-.54-.3-.54l-.31-.55s-.5-.48-.5-.48c0,0-.62-.36-.62-.36l-.61-.51s-.15-.31-.24-.51l.42.41.81.71s.63.28.63.28l.53.43.61.62s.98.14.98.14l.12.02-.97-.84s-.22-.69-.22-.69c-.17-.16-.34-.33-.51-.49l-.26-.31s-.26-.81-.26-.81c-.18-.19-.36-.38-.55-.56,0,0-.88-.82-.88-.83h0s-.03-.14-.05-.22c.07.03.16.08.16.08l.81.47s.97.28.97.28l1,.24,1.16.18-.27-.55s-.59-.25-.59-.25l-.53-.31s-.66-.28-.66-.28l-.57-.23s-.37-.49-.58-.75c.2.13.51.34.51.34.01,0,.52.04.52.04h1.58s.64.35.64.35c0,0,.54.59.54.59l.07.08-.07-.66s-.35-.45-.35-.45c0,0-.93-.52-.93-.52l-.73-.28s-1.11-.2-1.12-.2h0s-.21-.26-.21-.26c0,0-.81-.75-.81-.75-.13-.07-.26-.14-.39-.2,0,0-.12-.13-.2-.21h.41s.63.39.63.39c0,0,.85.28.85.28l1.08.16h0s.4.46.4.46l.58.36c.22.04.44.08.67.12h.09s-1.37-1.66-1.37-1.66c0,0-.66-.36-.66-.36,0,0-.77-.24-.77-.24,0,0-.68-.77-.68-.77,0,0-.85-.52-.85-.52-.2-.05-.41-.1-.61-.15.04-.06.17-.27.17-.27,0,0,.68-.3.68-.3,0,0,.99-.19.99-.19.03-.02.1-.26.1-.26-.01-.04-.44-.31-.44-.31-.17-.05-.34-.11-.51-.16-.03,0-.3.16-.3.16,0,0-.83.03-.83.03,0,0-.99-.23-.99-.23,0,0-1.02-.85-1.02-.85-.16-.08-.31-.16-.47-.24-.01,0-1.7-.2-1.7-.2,0-.02-.4-.61-.4-.61l-.54-.59s-.69-.62-.69-.62l-.02.05-.23.51s-.23.35-.23.35h0c0,.07.03.41.03.41,0,.02.23.25.24.26-.01,0-.08.36-.08.36,0-.02-.92.01-.93.01,0,0-.75-.35-.75-.35,0,0-.58-.2-.58-.2-.01,0-1.35.04-1.35.04-.03.02-.26.37-.26.37l-.03.05.59.09s.09.06.14.09l-.15.12s-.82-.05-.82-.05c-.01,0-.59.24-.59.24l-.06.03.29.19s1.25.05,1.25.05l.91.23h0s.17.26.17.26c0,0,.12.17.17.24l-.39.22s-1.11.47-1.11.47l-2.3,1.29s-1.52.22-1.52.22c-.01,0-.59.33-.59.33-.01,0-.48.66-.48.66,0,0-.27.81-.27.81-.02,1.37.03,1.4.05,1.41.05.03.44.25.75.09.35-.19,1.09-.37,1.47-.46.19-.04.28.03.29.1.02.08-.04.18-.18.22l-.08.02c-.67.18-1.35.4-1.33.66l.12.2c.3.22,1.08.11,1.49.02l.43-.12c.37-.11.79-.24,1.15-.2.21.02.39.11.61.22.29.14.63.3,1.13.34.84.06,1.41.23,1.45.28.11.23.04.56-.02.84l-.04.25c-.23,2.12-2.6,4.52-3.74,5.67-.31.31-.51.52-.56.6l-.13.3c-.11.28-.2.52-.56.67-.21.08-.7.45-1.26.87-.82.61-1.83,1.37-2.11,1.33-.47-.06-2.65-1.56-2.74-1.65-2.12-2.06-3.01-1.63-3.54-1.38l-.08.04c-.63.29-1.3,2.08-1.36,2.47l-.26,1.11-.2.81c-.06.27-.32.95-.57,1.6l-.51,1.42c-.08.33-.29.79-.46,1.16l-.23.55c-.16.65-.16,4.21.11,4.52h.01s.05.03.05.03c.28-.03.87-.64,1.15-.93l.07-.07c.24-.24.5-.89.5-1.16s-.12-.82-.17-.97c-.38-1.17-.24-2.29-.17-2.83l.03-.24c.02-.25.27-.52.51-.79l.31-.35c.17-.22.36-.3.52-.36l.27-.16.04-.04c.18-.18.49-.49.62-.9l.26-1.12.06-.3c.01-.06.04-.09.09-.1.1-.02.26.06.32.15l1.88,2.18c.48.41.98.9.98,1.01h0s-.01,0-.01,0c-.26.03-1.59-.26-1.81-.32-1.8-.53-2.62-.43-3.25.36-.72.91-.49,3.69-.35,3.99.14.28.79,3.67.82,4.12.03.44.2,1.23.38,1.42l.05.05c.22.22.81.81.91,1.39.11.63,1.45,2.32,1.96,2.47.08.02.16,0,.23-.04.39-.28.57-1.63.59-2.2.03-.71-.23-1.05-.5-1.42l-.1-.14c-.2-.27-.55-.37-.78-.44-.1-.03-.23-.06-.23-.09,0-.01-.03-1.05-.36-1.25-.26-.16-.52-1.16-.55-1.55-.03-.38-.18-1.3-.37-1.7-.2-.4-.37-1.15-.28-1.72.04-.25.21-.32.35-.35.25-.04.53.07.58.15.1.2,2,1.34,2.64,1.59.4.15.94.61,1.41,1.01.34.28.63.53.81.61.24.12.94.13,1.5.14.3,0,.6.01.64.04-.23.09-.22.49-.2.61.23,1.64,6.2,6.15,6.66,6.4.53.29,2.45,2.29,2.62,2.56.17.27.34.56.31.79-.05.33.09.71.35,1.02.26.29.59.46.9.46.27,0,.44-.24.58-.41l.03-.04c.36-.47.88-1.16.95-2.24.07-1.11.58-1.55.74-1.58.07-.01.13,0,.15.06.02.05,0,.13-.1.2-.22.15-.36.64-.5,1.16,0,0-.06.53-.06.53-.01.4-.03.84-.42,1.28-.59.64-1.27,2.12-1.45,3.99-.11,1.12.4,2.74,1.5,4.81l.08.15.3.5c.3.49.81,1.29.78,1.48-.03.27-.06.48-.52,1.05-.51.63-2.35,2.78-2.53,2.82-.37,0-.43.05-.72.27l-.31.24c-.34.24-.4.42-.46.58-.04.12-.08.23-.24.34l-.12.08s-.09.12-.83.86c-.85.84-1.23,1.79-1.1,2.74.04.3.3.4,1.05.43.75.03,2.48-1.17,2.56-1.57l.03-.15c.07-.36.18-.95.37-1.04.24-.1.64-.57.94-.91l.06-.06c.16-.18.2-.36.23-.54.03-.14.06-.27.15-.4.07-.09.17-.14.29-.2.23-.11.52-.25.73-.77.21-.51,1.44-1.4,2.34-2.04.46-.33.82-.59.91-.71.12-.15.19-.45.19-.77,0-.37-.1-.77-.34-1-.34-.32-.66-1.26-.76-1.56h0c0-.13-.01-.35-.03-.77,0-.02,0-.04,0-.06,0-1.11,1.65-2.19,2.36-2.66l.32-.22c2.58-2.27,3.08-4,3.18-4.48l.05-.57c.02-.39.03-.77.27-.82.09-.02.25.06.34.17.05.06.13.19.08.33-.12.32-.16,3.53-.16,3.66,0,.02.28.34.28.34l.05.06v-.07s.17-.91.17-1.22c0-.35.56-1.83.69-1.85,0,0,0,.02,0,.02.06.2.15.71.15,1.24s-.08,1.07-.33,1.39c-.39.48-.69,1.23-.89,1.73l-.19.42c-.02.06-.03.12-.03.18,0,.41.21,1.27.35,1.43.04.04.06.04.09.03.04-.02.09-.07.09-.42,0-1.3,1.09-2.24,1.1-2.24.96-.76,1.17-2.17,1.17-3.25,0-.81-.12-1.44-.12-1.45-.15-.23-.31-.45-.46-.67.02.01.15-.09.19-.13.04.05.48.63.48.63.07.1.26.4.26.52,0,.67.1,1.12.18,1.46l.02.08c.08.36.56,1.49.58,1.54l.05.12.02-.13s.08-.6,0-1.11c-.04-.28.01-.63.07-1.01l.09-.87c0-.7-.1-1.15-.35-1.55l-.13-.19c-.05-.08-.1-.16-.09-.17l.09-.04c2.03-.69,2.97-2.18,3.36-3.01.4-.88.42-2.23.42-2.48,0-.34-.01-2.09-.31-2.99-.17-.53-.12-1.1-.06-1.72l.06-1.05c0-.72.38-1.26.75-1.78l.44-.68c.29-.57.13-1.06.02-1.2h0Z"/>
  <path class="cls-1" d="M34.02,15.22s.46-.2.46-.2c.02-.04-.08-.45-.08-.45-.31-.37-.62-.74-.94-1.1l-.05-.05-.02.07-.1.44s-.3.71-.3.71v.03s.61.32.61.32l.4.24h0Z"/>
  <path class="cls-3" d="M34.21,18.05c.1.04.25.02.39-.04.22-.1.35-.28.29-.4l-.1-.09c-.1-.04-.25-.02-.39.04-.19.08-.31.22-.31.34,0,.02,0,.04.01.06l.1.09h0ZM37.96,16.5l.18.1c.03.06.09.11.15.13.08.02.16,0,.22-.05.05-.04.06-.11.03-.2-.05-.15-.2-.31-.37-.31-.21,0-.41.02-.41.18,0,.09.1.12.2.16h0ZM38.18,17.13c-.08.06-.12.14-.1.23l.02.07c.02.08.03.1.1.11l.14.02c.17.04.45-.06.51-.2.02-.05.04-.13-.08-.22-.2-.14-.46-.11-.59,0h0ZM38.74,19.57c-.05-.02-.03-.1,0-.22.03-.09.06-.19.01-.23-.04-.04-.12-.04-.25.01-.46.17-.54.64-.59.99l-.02.11c-.03.15.05.21.1.22.16.06.45-.09.51-.2.07-.12.47-.23.77-.31l.11-.03c.14-.04.2-.09.21-.16.01-.09-.09-.18-.18-.23-.08-.05-.21-.01-.34.02-.13.04-.27.07-.36.03h0ZM33.83,19.74c.1-.01.18-.05.23-.12.15-.22.16-.53.01-.82-.14-.27-.38-.44-.62-.45h0s-.05,0-.05,0l-.45.03c-.24.05-.45.23-.51.4-.03.09-.01.17.05.23.36.38.98.77,1.33.74h0ZM29.43,19.38c.05.13.3.15.66.04l.08-.02.65-.25.93-.61s.27-.2.22-.32c-.04-.08-.16-.06-.25-.05-.26.05-.51.17-.78.3l-.38.18-.17.07c-.58.24-1.05.45-.97.67h0ZM27.46,20.07c-.19,0-.28.11-.35.2l-.09.1c-.15.13-.2.44-.18.67,0,.1.04.28.13.33.19.11.27.03.46-.15l.15-.13c.19-.16.4-.33.43-.6.01-.11-.01-.21-.08-.28-.11-.12-.32-.15-.47-.15h0ZM28.54,20.15c-.06-.01-.09,0-.11.02-.06.06-.03.17-.02.27v.07s0,.04,0,.04c-.01.03-.03.08,0,.11.02.04.08.05.18.05.13,0,.14-.01.18-.12l.03-.09c.03-.08.03-.15,0-.2-.05-.1-.18-.13-.28-.15h0ZM29.58,21.84c.14,0,.25-.13.24-.27,0-.13-.11-.24-.24-.24-.14,0-.25.11-.25.25,0,0,0,0,0,0,0,.14.11.26.25.26h0ZM34.26,21.21c-.07-.01-.15.01-.19.07-.07.08-.49.37-.8.58l-.4.28-.03.03s-.07.08-.04.17l.05.07.1-.02.16-.06.22-.03c.22-.03.46-.06.57-.18l.15-.24.22-.35c.11-.12.11-.2.1-.24-.02-.04-.06-.08-.1-.08ZM34.72,22.64c0,.13.06.18.1.2.1.05.24,0,.33-.12l.29-.25c.16-.11.33-.24.48-.43.14-.18.08-.3.03-.34-.1-.1-.3-.12-.36-.06l-.08.06c-.19.12-.63.41-.74.76-.02.06-.03.12-.04.19h0ZM36.59,22.5c-.06-.09-.16-.12-.23-.08l-.2.15c-.14.12-.32.26-.47.31-.37.1-.88.27-.91.52v.03c0,.07.03.11.06.14.14.12.48.05.73-.05.38-.14.61-.31.91-.58.18-.17.18-.34.11-.43h0ZM35.14,25.44h-.12c-.31.07-.85.99-1.22,1.68l-.07.12-1.13,2.11-.35.67c-.04.06-.03.15.03.21.05.05.15.08.27.01.19-.13.87-.81,1.19-1.34l.42-.58c.27-.35.58-.75.76-1.22l.06-.16c.43-1.11.5-1.29.15-1.5h0ZM39.38,21.38c-.13,0-.25.1-.25.24,0,0,0,0,0,0,0,.13.11.24.25.24s.25-.11.25-.24c0-.13-.11-.24-.25-.24,0,0,0,0,0,0ZM39.26,22.38c0,.13.11.24.25.24.13,0,.24-.11.24-.24,0,0,0,0,0,0,0-.13-.11-.24-.24-.24-.13,0-.25.1-.25.24ZM39.49,22.91c-.16,0-.28.1-.28.23s.13.23.28.23.29-.1.29-.23c0-.12-.13-.23-.29-.23ZM39.47,23.57c-.18,0-.32.11-.32.25s.14.25.32.25.32-.11.32-.25-.14-.25-.32-.25ZM39.49,24.41c-.2,0-.36.12-.36.27s.16.26.36.26.36-.12.36-.26-.16-.27-.36-.27ZM39.36,25.82c.22-.02.39-.14.38-.28l-.07-.13c-.08-.06-.21-.1-.35-.09-.22.02-.38.14-.38.27h0s.07.14.07.14c.08.07.21.1.35.09h0ZM38.87,26.52h0s0,0,0,0ZM39.35,26.7c.25-.04.43-.17.41-.32l-.07-.12c-.09-.07-.24-.09-.4-.07-.25.03-.43.17-.41.32l.08.12c.09.07.24.09.4.07ZM38.93,27.13c0,.15.19.28.43.28s.43-.12.43-.28-.19-.28-.43-.28c-.25,0-.43.12-.43.28ZM39.7,28.03c0-.16-.22-.29-.51-.29s-.51.13-.51.29.22.29.51.29.51-.13.51-.29ZM39.37,28.79c0-.16-.17-.29-.37-.29s-.37.13-.37.29.17.29.37.29.37-.13.37-.29ZM39.2,29.75c0-.18-.18-.33-.4-.33s-.39.15-.39.33.18.33.39.33.4-.15.4-.33ZM38.87,30.68c0-.16-.15-.29-.32-.29s-.32.13-.32.29.15.29.32.29c.18,0,.32-.13.32-.29ZM38.32,31.23c-.17,0-.31.13-.31.29s.14.29.31.29.31-.13.31-.29c0-.16-.14-.29-.31-.29ZM38.05,32.62c.17,0,.32-.11.32-.25s-.15-.25-.32-.25-.32.11-.32.25.14.25.32.25ZM37.76,33.23c.16,0,.3-.09.3-.21s-.13-.21-.3-.21-.3.09-.3.21.13.21.3.21ZM37.47,33.82c.15,0,.29-.1.29-.21s-.13-.21-.29-.21-.28.1-.28.21c0,.12.13.21.28.21ZM29.05,33.3h.05s.39-.06.39-.06c.35-.08.87-.19,1.5-.21.47-.01.97.15,1.34.27.33.11.5.16.56.09.04-.05.02-.11,0-.16-.1-.22-.54-.93-1.98-.96-.93-.02-1.69.61-1.86.88-.03.05-.04.1-.02.13v.02s.01,0,.01,0ZM34.39,36c.09-.06.13-.16.12-.31-.03-.58-.19-.65-.51-.65s-.56.33-.56.5c0,.16.12.3.34.41.13.07.42.16.6.05h0ZM38.8,43.1c.46.22.63.29.7.31,0,0,0,0,0,0,0,0,0,0,0,0,.03,0,.04,0,.05,0,0,0-.02-.03-.03-.04,0,0,.01-.02.01-.02,0,0-.03-.01-.03-.01-.31-.39-2.15-3.01-2.54-4.74-.06-.28-.13-.55-.32-.66-.1-.06-.24-.06-.4,0h0s-.06.04-.08.09c-.02.05-.02.1-.02.15,0,.62.66,2.31.87,2.66,1.19,1.93,1.77,2.24,1.79,2.26h0ZM53.88,43.85h-.07s.02.54.02,1.2c0,.96-.03,2.25-.2,2.83-.14.47-.76,1.36-1.26,2.08,0,0-.58.87-.58.88-.02.03-.03.06-.02.1,0,.09.04.17.12.22.06.04.27.14.56-.21l.37-.39c.5-.5,1.11-1.11,1.55-2.47.48-1.49-.48-4.2-.49-4.23ZM38.34,48.71s.12.06.19.03c.12-.04.2-.15.21-.28.02-.19.15-.44.34-.65.21-.24.19-.6-.04-.82l-.25-.1c-.16,0-.28.13-.28.14-.08.4-.16.79-.24,1.19h0c-.02.06-.04.38.06.48h0ZM46.38,53.11h-.01s-.01,0-.01,0c0,0-.22.1-.28.31-.04.14.03.26.09.35l.07.13.03.26.05.38c.02.08.1.14.19.13.1,0,.21-.08.25-.23.05-.2.07-.48.07-.85,0-.34-.43-.48-.45-.48h0ZM33.9,50s-2.98-3.23-3.61-4.07c-.65-.86-.96-.92-1.28-.75-.05.03-.08.08-.08.13-.05.35.69,1.19,1.34,1.81.9.87,3.57,2.91,3.59,2.93l.05-.05h0ZM22.34,40.56c-.6-.37-1.63-.58-1.64-.58l-.03.06,1.15.87c.19.16,1.02.67,1.29.46.04-.03.06-.07.05-.11,0-.16-.3-.36-.83-.69h0ZM22.06,35.66l.08-.03c.1-.12-.13-.45-.42-.71-.26-.24-.53-.4-.66-.39l-.08.03s-.03.05-.02.07c0,.15.21.42.45.64.26.24.53.4.66.39ZM25.12,35.24h-.12c-.22.1-.58.67-.86,1.38-.2.51-.35,1.06-.35,1.39,0,.16.03.26.11.3h.12c.22-.1.58-.67.86-1.38.2-.51.35-1.06.35-1.39,0-.16-.03-.26-.11-.29h0ZM19.6,31.74c-.29,0-.52.14-.52.31s.23.31.52.31.52-.13.52-.31-.23-.31-.52-.31ZM17.77,35.57h.09c.16-.08.39-.51.57-1.04.19-.56.29-1.17.11-1.23h-.09c-.16.09-.39.51-.57,1.04-.19.56-.29,1.17-.11,1.23h0ZM18.25,38.47c.15-.2.18-.44.07-.52l-.13-.03c-.11.01-.24.11-.34.24-.15.2-.18.43-.07.52l.13.03c.11-.02.24-.11.34-.24h0ZM18.07,41.66h-.01s-.06-.01-.06-.01c-.21.05-.06.95.05,1.42.15.66.36,1.19.5,1.28h.01s.06.01.06.01c.21-.05.06-.95-.04-1.42-.15-.66-.35-1.19-.5-1.28h0ZM15.99,42.86c-.17,0-.3.12-.3.28s.13.27.3.27.3-.12.3-.27c0-.15-.14-.28-.3-.28ZM21.1,49.39c-.19,0-.35.15-.35.34,0,.19.16.34.35.34.19,0,.35-.15.35-.34,0-.19-.16-.35-.35-.34ZM38.38,58.48s.04.07.09.07h.02s.04-.06.04-.06l.32-.97.25-.64.21-.49c.06-.16.06-.27,0-.34-.1-.09-.31-.01-.34,0-.02.01-.6.98-.6.98-.11.17-.16.41-.16.64,0,.34.09.68.16.81h0ZM39.82,63.31v-.1c.02-.06.19-1.4-.22-1.92-.09-.11-.21-.19-.36-.2-.12-.01-.21.02-.26.1-.25.41.74,1.96.78,2.03l.05.08h0ZM42.14,65.86c-.2,0-.36.16-.36.35,0,0,0,0,0,0,0,.2.16.35.36.35s.35-.16.35-.35-.16-.35-.35-.35h0ZM36.69,61.53c-.17,0-.31.13-.31.3s.15.3.31.3.31-.13.31-.3-.14-.3-.31-.3ZM40.66,66.77h-.04c-.19,0-.9.61-1.51,1.23-.05.06-1.37,1.41-1.2,1.58h0s.04.02.04.02c.19,0,.9-.62,1.5-1.24.06-.06,1.38-1.4,1.2-1.58h-.01ZM36.71,70.42c-.11,0-.28.1-.44.26-.18.18-.32.44-.22.54h0s0,0,0,0l.1.03c.11,0,.28-.1.44-.26.18-.19.32-.43.21-.54l-.1-.04ZM34.97,72.92c-.13,0-.33.11-.49.28-.17.17-.27.37-.27.5,0,.05.01.09.05.12l.12.05c.13,0,.33-.11.49-.28.24-.25.34-.51.23-.63l-.12-.05ZM25.91,60.34c-.26,0-.47.15-.47.33s.21.33.47.33.47-.14.47-.33c0-.19-.21-.33-.47-.33ZM29.75,60.6c-.18,0-.33.1-.33.23,0,.12.14.22.33.22s.33-.1.33-.22c0-.13-.15-.23-.33-.23ZM34.43,62.17l.03-.04c.05-.22-1.05-.57-1.64-.71-.71-.18-1.55-.33-1.74-.21h-.01s-.03.05-.03.05c-.05.22,1.05.56,1.64.72.71.18,1.55.32,1.74.21h.01s0,0,0,0Z"/>
</svg>