<?xml version="1.0" encoding="UTF-8"?>
<svg id="Layer_1" data-name="Layer 1" xmlns="http://www.w3.org/2000/svg" viewBox="0 0 78.76 97.94">
  <defs>
    <style>
      .cls-1 {
        fill: none;
      }

      .cls-1, .cls-2 {
        stroke: #010101;
        stroke-miterlimit: 33.89;
        stroke-width: .6px;
      }

      .cls-2, .cls-3 {
        fill: #edc95e;
      }

      .cls-2, .cls-3, .cls-4, .cls-5 {
        fill-rule: evenodd;
      }

      .cls-3, .cls-4, .cls-5 {
        stroke-width: 0px;
      }

      .cls-4 {
        fill: #ca3232;
      }

      .cls-5 {
        fill: #010101;
      }
    </style>
  </defs>
  <path class="cls-2" d="M61.51,83.8c-5.87,5.35-10.92,8.23-21.56,13.81-9.9-4.5-16.37-8.94-21.97-13.32-7.75-6.03-13.31-15.82-13.79-21.83L.32,5.29c26.18-6.81,54.03-6.65,78.12.46l-3.92,56.59c-.5,5.12-5.08,15.09-13.01,21.46h0Z"/>
  <path class="cls-2" d="M70.03,60.46l3.54-50.53C52.84,3.33,28,3.23,5.12,9.24l3.61,51.19c.38,5.32,4.21,13.46,11.56,19.69,4.42,3.75,13.08,10.06,19.48,12.47,7.37-3.73,14.07-8.37,19.38-12.94,6.59-6,10.48-13.46,10.88-19.19Z"/>
  <path class="cls-2" d="M58.31,78.32c-5.09,4.39-11.95,9.31-18.54,12.45-5.88-1.82-14.58-8.53-18.76-12.14-7.3-6.3-10.26-12.89-10.71-19.13L6.75,10.64c21.79-5.72,45.57-5.72,65.33.57l-3.51,48.22c-.51,6.41-3.49,12.54-10.26,18.89Z"/>
  <path class="cls-1" d="M8.38,11.59l.7,8.42M9.08,20.01c20.8-5.2,42.58-4.68,60.67.79M69.75,20.8l.78-8.57M70.52,12.23c-18.74-5.74-41.49-6.06-62.15-.64"/>
  <path class="cls-5" d="M60.09,14.71l-4.69-.77-.18,2.2-1.53-.23.36-5.84,1.56.23-.16,2.24,4.76.77.15-2.24,1.59.3-.48,5.86-1.55-.29.17-2.23h0ZM37.46,12.73c-.57,0-1.03-.16-1.33-.66-.26-.42-.26-1.77,0-2.22.29-.52.8-.67,1.23-.67h6.65s.02,1.44.02,1.44h-6.29c-.31,0-.32.69.02.69h4.96c.58,0,1.1.35,1.26.81.18.49.15,1.6,0,2.06-.14.46-.66.71-1.32.71h-6.56v-1.47s5.83,0,5.83,0c.19-.02.33-.18.32-.37-.01-.17-.15-.3-.32-.32h-4.47ZM33.61,13.31c0-.3-.26-.55-.56-.54,0,0,0,0,0,0l-4.41.32.09,2.19-1.43.15-.3-5.77,6.57-.49c.85-.06,1.35.57,1.39,1.1.05.63.07,1.44-.42,1.77.41.3.52.75.52,1.38l.02,1.48-1.43.06-.03-1.64h0Z"/>
  <path class="cls-3" d="M32.67,11.44c.56-.03.51-.91,0-.86l-4.2.32.05.8,4.15-.26h0Z"/>
  <path class="cls-5" d="M18.91,10.67c1.35-.32,4.11-.76,5.56-.87.66-.05,1.18.29,1.27.81.21,1.18.34,2.41.2,4.05-.04.47-.45.85-.99.96-1.86.41-3.94.63-5.48.78-.39.04-1.01-.27-1.12-.76-.27-1.19-.37-2.86-.29-4,.03-.42.43-.87.86-.97h0Z"/>
  <path class="cls-3" d="M24.16,14.19c.19-.04.27-.24.29-.39.07-.45,0-1.62-.1-2.02-.03-.16-.16-.25-.46-.23-.8.05-2.92.35-3.96.58-.28.07-.38.23-.4.38-.05.38.07,1.44.16,2.02.02.14.2.24.34.23,1.41-.11,3.08-.34,4.13-.57Z"/>
  <path class="cls-5" d="M47.33,10.92c-.31,0-.52.18-.55.34-.07.48-.1,1.1-.1,1.91,0,.11.18.4.34.42,1.41.2,4.14.44,5.62.54l-.09,1.51c-1.95-.09-4-.4-6.11-.55-.69-.05-1.2-.42-1.23-1.09-.04-1.1.03-2.77.22-3.74.13-.6.7-.91,1.35-.89,1.95.07,3.51.25,6.06.59l-.1,1.5c-1.24-.11-3.59-.47-5.42-.55h0ZM15.35,11.36c1.98-.47,2.28,3.04.63,3.45l-4.61,1.15.22,2.27-1.45.38-.52-5.91,5.72-1.35h0Z"/>
  <path class="cls-3" d="M15.33,13.65c.47-.11.41-.95-.1-.85l-4.16,1,.1.87,4.16-1.03Z"/>
  <path class="cls-5" d="M64.24,15.59l-.1.95,4.57,1.15-.12,1.32-6.13-1.44.53-5.95,6.17,1.49-.14,1.39-4.59-1.11-.09,1,4.56,1.11-.11,1.18-4.54-1.09h0Z"/>
  <path class="cls-1" d="M27.14,41.51v-7.04s0-1.01,0-1.01h11.74s0-16.05,0-16.05M38.88,17.41c-9.14,0-19.15.86-29.76,3.83M9.12,21.23l2.19,30.14h15.83v-9.86"/>
  <path class="cls-5" d="M27.12,36.08c0-.11-1.3-.2-1.95-.12-1.72.2-6.01,1.55-7.82,2.8-.04.11-.03.7-.16.98-.11.25-.38.51-.64.63-.47.2-1.01-.42-1.24-.33-.25.09-.77.3-1.33-.1-.25-.18-.38-.69-.29-1.06.08-.27.31-.48.49-.65.16-.16.05-.79.64-1.17.41-.26.97-.05,1.41.18.1-.03.16-.07.24-.14.06-.17.15-.69.23-1.1.1-.44.13-.73.26-1.13.33-.99,1.11-2.41,1.93-3.15.65-.57,1.65-1.03,2.39-.98-.07.11-1,.94-1.27,1.31-.64.85-1.23,2.15-1.5,3.26-.1.38-.1.51-.03.76.6-.27,1.39-.53,1.85-.68.18-.4.28-.86.43-1.22.24-.57.4-.82.65-1.22.73-1.13,2.26-2.24,3.4-2.21-.38.33-1.16,1.14-1.47,1.63-.25.41-.49.85-.67,1.31-.16.41-.2.71-.24,1.04.59-.17,1.17-.29,1.54-.32.25-.14.33-.41.47-.66.43-.81,1.28-1.71,1.82-2.01.43-.24,1.07-.47,1.53-.32-.49.37-1.01.95-1.23,1.31-.24.38-.62,1.1-.61,1.44.4.03.92.01,1.15-.05l.02,1.96v-2.09s0,2.09,0,2.09h0Z"/>
  <path class="cls-5" d="M21.92,22.86c.62-.86,2.25-2.17,3.51-2.1-.69.6-1.29,1.26-1.72,1.96-.56.91-1.01,2.04-1.1,2.91.42-.16,1.4-.43,1.96-.55.5-1.09,1.15-2.29,1.96-2.93.58-.47,1.41-.87,2.19-.78-.18.25-.47.45-.69.65-.4.35-.68.82-.9,1.31-.16.36-.44,1.44-.45,1.49.56,0,1.56.06,1.77.12.66-.87,2.11-2.12,3.84-1.84-.75.41-2.12,1.6-2.04,2.25,1.13.73,2.81,2.25,2.88,3.66-.77-.8-2.03-1.59-2.67-1.81-1.53-.54-3.35-.61-4.87-.33-3.17.6-5.97,1.97-8.66,3.57-.07.43-.3,1.09-.5,1.31s-.49.43-.81.48c-.4.06-.81-.1-1.15-.28-.22-.12-.8.03-1.17-.16-.25-.13-.65-.5-.54-1.08.09-.51.6-.82.68-1.31.11-.72.63-1.03.9-1.08.29-.06.6.04.87.16.11.06.24.16.34.19.11-.03.26-.16.35-.2.02-.08.29-1.58.44-2.23s.4-1.21.61-1.82c.64-1.81,2.61-3.64,4.18-3.54-.08.11-.59.48-1.29,1.3-1.14,1.33-1.42,2.74-1.85,5.17.87-.41,1.63-.7,2.43-.99.19-.75.44-1.49.75-2.2.2-.46.45-.91.74-1.31h0Z"/>
  <path class="cls-4" d="M69.54,24.87l-29.21.03.02,8.59,28.53-.02.65-8.59Z"/>
  <path class="cls-5" d="M47.05,63.27c-.2.82-.3,2.21-.29,2.24.5-.21.96-.38,1.37-.51.03-.05.61-1.31.87-1.66.61-.95,1.44-1.75,2.44-2.29.63-.32,1.4-.61,2.08-.36-.89.42-1.59,1.19-2,1.63-.38.41-.83,1.01-1.04,1.63-.03.11-.07.33-.07.33.42-.13,1.75-.33,2.3-.4.07,0,.24-.38.37-.55.16-.22.26-.36.52-.65.67-.73,1.81-1.5,2.91-1.33-.6.38-1.27,1-1.8,1.96-.07.15-.17.35-.13.44.16.03.97.02,1.46.07.56-.35,1.16-.66,1.81-.8.73-.16,1.67-.03,2.05.31-.44-.02-.86.06-1.26.21-.23.09-.69.3-.86.6.43.12,1.14.59,1.59.96.31.26.69.64.92.98.6.81.72,2.26.4,2.69-.09-.25-.19-.51-.33-.74-.29-.48-.74-1-1.12-1.29-1.85-1.41-4.53-1.48-6.71-1.04-1.87.38-5.25,1.09-7.45,2.65.06.28-.12.74-.37.92-.34.24-.81-.09-1.05.04-.33.17-.75.06-.92,0-.29-.12-.49-.42-.52-.78-.02-.28.24-.61.3-.91.03-.12-.11-.73.41-1.04.1-.06.39-.16.6-.13.2.04.37.17.57.2.28-.1.54-.23.79-.38.16-.63.29-1.36.37-2l1.76-1h0Z"/>
  <path class="cls-1" d="M45.29,64.27c-1.46.73-3.38,1.22-5,1.28M40.29,65.55v23.48M40.3,89.03c6.82-3.46,14.31-9.12,17.5-12.23,5.16-5.02,8.63-10.1,9.16-17.43M66.96,59.37l.48-6.68-15.5-.02M51.94,52.68c0,3.79-1.26,7.71-4.89,10.58M47.04,63.25l-1.75,1.02"/>
  <path class="cls-5" d="M47.33,71.96c.25-.38.54-.92.69-1.16.52-.82,1.26-1.44,1.77-1.67.69-.33,1.81-.53,2.31-.29-.55.13-.96.38-1.35.65-.39.27-1.16.97-1.36,1.27-.22.33-.37.62-.42.77.62-.14,1.36-.25,1.75-.25.28-.35,1.01-1.19,1.56-1.58.44-.31,1.38-.62,1.97-.37-.56.18-1.56.96-1.93,1.53-.08.13-.16.27-.17.34.3.03.87.08,1.18.12.03,0,.88-.52,1.27-.63.5-.14,1.32-.32,1.83.23-.38,0-.73.04-1.01.16-.4.18-.57.31-.75.56.78.42,1.6.85,2.08,1.62.17.27.43.91.28,1.32-.24-.31-.58-.61-.85-.77-.38-.22-.66-.43-1.13-.61-1.46-.55-3.38-.69-4.9-.49-1.98.25-4.4,1.23-5.65,2.08.08.38-.11.83-.33.94-.47.24-.91-.16-1-.14-.12.04-.5.17-.77.06-.27-.11-.44-.58-.33-.88.08-.23.41-.56.41-.56-.05-.5.28-.8.73-.86.25-.02.43.17.64.21.19-.09.32-.15.42-.2.11-.41.29-.82.4-1.17.19-.58.47-1.09.82-1.63.51-.78,1.41-1.51,2.48-1.53-.33.25-.52.39-.72.65-.35.44-.62.84-.87,1.31-.22.42-.42,1.04-.46,1.58.39-.19,1-.46,1.41-.63h0ZM47.17,76.37c.28-.11.57-.2.87-.16-.69.44-1.32,1.09-1.49,1.85-.02.08-.02.24.06.29.2-.05.69-.16.83-.22.08-.17.29-.44.42-.62.49-.65,1.19-1.31,2.16-1.06-.64.28-1,.69-1.28,1.19-.05.09-.08.26-.02.26.16,0,.79-.02.87-.02.29-.25,1.12-.73,1.69-.56-.29.13-.55.31-.78.53-.06.07-.13.15-.15.24.51.25.96.54,1.37.9.22.19.54.54.73,1.14-.49-.42-2.09-1.18-2.97-1.22-.57-.02-1.28.08-1.64.16-1.38.31-2.8.93-4.02,1.62,0,.24-.03.52-.3.74-.18.15-.57.22-.72,0-.08-.11-.61,0-.73-.14,0,0-.14-.21-.16-.47-.02-.27.16-.43.31-.57.04-.05.03-.51.38-.66.21-.1.43-.06.61.05.07-.04.13-.08.18-.11.04-.53.14-1.02.34-1.55.27-.75,1.15-1.67,1.91-1.63-.51.56-.93,1.32-1.07,1.96-.04.2-.06.6-.06.79.18-.11.37-.21.57-.29.08-.2.32-.69.44-.91.31-.57,1.01-1.31,1.63-1.56h0Z"/>
  <path class="cls-4" d="M12.09,60.23c.1,2.84,1.26,6.27,2.85,8.64h23.77l-.05-3.31c-3.06,0-7.72-2.02-9.57-5.31l-17.01-.02h0Z"/>
  <path class="cls-1" d="M28.43,52.83c0,15.1,22.11,15.1,22.11.16M50.55,52.98v-18.17s-22.11,0-22.11,0v18.02"/>
  <path class="cls-5" d="M35.56,45.59c.26-.29.49-.66.54-.98.04-.26-.69-.24-.96-.08-.15.09-.29.27-.4.43-.08.12-.38.22-.52.08-.16-.15.12-.4.11-.55,0-.26-.5.13-.73.02-.16-.07-.16-.31-.06-.45.06-.07.22-.04.29-.12s.07-.2.1-.31c.03-.12.16-.18.24-.27.31-.3.9-.82,1.01-.81.27.02.65.16.89.04.05-.02.14-.1.06-.15l-.64-.42c0-.13.05-.26.15-.35.29-.26.75-.08,1.14-.14.27-.04.52-.15.72-.33.05.2-.07.39-.07.6.25.23.5.42.74.64.7.7,1.01,1.72,1.05,2.62.04.42.04.84.04,1.53.11-.29.19-.73.21-1.1.11-1.11-.07-2.1-.69-2.94-.26-.35-.55-.68-.87-.98.03-.33.31-.88.57-.68.17.13-.08.33.1.44.2.12.48.11.6.08.29-.07.56-.15.82-.17.12,0,.33-.07.37.06.03.08-.06.14-.15.17-.11.03-.27,0-.36.1-.07.07-.15.15-.12.26.03.12.16.19.29.15.49-.14,1-.21,1.51-.23.27,0,.21.2.08.27-.09.05-.23.09-.32.1-.48.06-.84.09-.78.37.04.19.34,0,.41.15.07.15-.13.23-.11.33.05.31.65.24.92.18.2-.05.53-.21.63-.08.09.11.02.29-.1.33-.29.08-.8.23-.94.39-.13.16.03.47.18.49.35.04.74.04,1.01.12.11.03.2.11.2.22,0,.12-.12.16-.22.2-.19.06-.51.06-.68.13-.06.02-.17.07-.15.13.05.12.29.09.5.11.11,0,.34.1.34.22,0,.13-.11.17-.32.16-.32-.02-.61.02-.75.07-.04.02-.29.05-.28.16.02.14.28.05.34.19.06.13-.12.2-.14.37,0,.07.03.1.1.12.21.09.46.08.67.04.22-.04.3.25.25.29-.29.16-.92,0-1.07.08-.2.13.34.42.33.49-.02.07-.08.15-.13.16-.28.11-.64-.1-.84.02-.17.11-.1.38-.2.51-.13.17-.43.1-.56.2-.17.12-.18.42,0,.6.15.14.29.24.47.33.85.42,1.73.85,2.56.79.42-.02,1.12-.05,1.5.05.5.12,1,.51,1.27.67.21.13.55.16.83.07.2-.07.33-.29.29-.49-.12-.65-1.2-.86-1.22-1.51-.02-.75-.08-1.16-.33-1.63-.09-.18-.11-.6.11-.65.17-.04.23.2.37.14.63-.25.65-1.24,1.31-1.43.38-.11,1.67-.12,1.57-.29-.27-.38-.15-.82,0-1.03.1-.13.37-.26.47-.13.15.17-.22.37-.2.63.02.24.37.69.11.94-.16.15-1.32.2-1.67.72-.21.32-.24.57.02.55.2-.02.38-.27.56-.41.34-.24.61-.34.79-.16.1.09-.03.26-.21.31-.15.05-.51.43-.41.53.15.16.96-.55,1.17-.41.11.08-.4.6-.31.74.11.17.45-.1.56.03.15.2-.27.58-.52.75-.19.12-.11.58-.38.72-.3.15-.44.41-.41.45.03.07.11.11.22.04.33-.21.75-.47.92-.4.1.04-.04.51-.16.73-.12.22.5.1.41.29-.08.17-.1.36-.07.55.05.25-.67.31-.73.48-.07.2.07.24.15.25.43.07.38.46.2.64-.23.23-.62.32-.96.26-.29-.05-.96-.17-1.35-.47-.12-.09-.3-.02-.33.1-.02.14.12.39.19.6.09.32.04.72-.07,1.03-.23.64-.84,1.18-1.01,1.96-.04.21.02.46.1.65.18.42.44.82.73,1.18.04.11.1.24.05.35-.07.16-.57.51-.72.65-.47.43-.87,1-.96,1.61-.03.22-.51.44-.83.53-.24.06-.48.13-.68.28-.02.18.08.34.11.51.04.31-.35.47-.65.56-.14.06-.3.09-.45.09-.06,0-.07-.1-.07-.15.09-.42.17-.77.33-1.12.07-.13.17-.24.28-.33l1.17-.98.92-1.31c.08-.12.11-.23.11-.32,0-.25-.11-.49-.29-.65-.23-.2-.56-.24-.82-.37-.33-.16-.8-.62-.87-.65-.18-.09-.29.24-.31.42-.04.29.05.55.04.84,0,.13-.02.21-.08.29-.77.44-1.72.6-2.29,1.31-.1.12-.19.25-.32.34-.32.22-.85-.03-1.09.31-.11.16.02.36-.02.53-.02.1-.21.23-.36.3-.2.09-.41.14-.62.15-.24-.11-.09-.45,0-.69.08-.24.2-.49.38-.65.28-.24.63-.55.85-.66.19-.09.47-.09.7-.18.24-.07.47-.18.68-.33.34-.21.65-.47.83-.83.21-.41.19-.95-.08-1.3-.24-.32-.53-.63-.69-.99-.09-.2-.03-.46.11-.64,0,0-.11-.07-.16-.06-1.17.05-2.35-.08-3.44-.51-.29-.11-.58-.48-.78-.51-.19-.03-.3.21-.49.26-.3.08-.69.03-1.05,0-.41-.04-1.26-.22-1.87-.42-.1.02-.2.03-.29.09-.13.09-.16.28-.16.45-.02.22.05.42.02.65,0,.11-.07.24-.04.34.03.13.16.19.25.27.15.14.17.42.17.65,0,.25-.09.59.12.76.13.11.31-.03.47,0,.18.03.24.25.24.42,0,.2-.16.61-.26.72-.07.07-.2.02-.29-.02-.24-.11-.46-.28-.59-.51-.06-.1-.06-.22-.11-.33-.09-.18-.25-.29-.42-.41-.2-.15-.24-.42-.27-.65-.02-.22.02-.43.03-.65.04-.44.01-.88-.08-1.31-.07-.33-.25-.65-.17-.98.04-.16.15-.3.29-.37.79-.04,1.58-.17,2.33-.41l-.49-.48c-.12,0-.22.12-.34.12-.13,0-.31-.19-.36-.25-.25-.38-.42-.81-.53-1.25-.11-.17-.24-.34-.43-.42-.14-.06-.28-.09-.43-.08-.41.18-.78.53-.82.98,0,.11.06.21.04.33-.02.2-.17.33-.31.47s-.27.28-.33.47c-.05.16,0,.33.08.49.05.11.11.21.07.33-.1.27-.74.55-.93.55-.07,0-.12-.09-.15-.16-.07-.24-.06-.51,0-.75.17-.19.3-.41.38-.65.1-.33.05-.68.2-.98.41-.69,1.45-2.08,1.66-2.28.09-.09.31-.14.4-.08.44.29.7.64,1.13.86.23.11.52.29.72.12.2-.16.24-1.26.37-1.53.24-.48.9-1.12,1.35-1.63h0ZM43.69,38.79l-.18.69h-.65l.85-3.22h.74l.82,3.19h-.65l-.16-.66h-.76ZM41.97,37.19c0-.21-.06-.49-.23-.55-.18-.07-.37,0-.45.11-.14.23-.14.54-.13,1.01,0,.29,0,.69.07.87.14.43.51.46.69.19.09-.13.09-.38.08-.61h-.38v-.47h.97v1.73h-.47v-.24s-.21.17-.31.22c-.16.07-.47.07-.73-.03-.21-.09-.42-.37-.51-.74-.09-.38-.05-.88-.05-1.31,0-.45.24-.95.57-1.13.23-.13.65-.13.92-.03.33.11.58.59.53.99h-.59s0,0,0,0ZM31.03,36.31c.26.16.4.47.35.82h-.52c0-.33-.14-.48-.42-.49-.17,0-.38.19-.38.33,0,.43.38.52.64.6.2.06.43.18.55.35.21.31.24.64.07,1.06-.08.2-.39.45-.65.51-.29.07-.65.03-.95-.19-.24-.18-.34-.53-.29-.85h.58c0,.16.02.27.09.37.05.07.14.17.29.18.23.02.43-.16.45-.39,0-.03,0-.05,0-.08-.03-.5-.87-.53-1.15-.85-.34-.39-.24-1.02.04-1.27.38-.36.91-.36,1.31-.11h0ZM47.53,38.44c0,.12.02.55.03.83,0,.08.09.19.09.2h-.61c-.08,0-.09-.15-.1-.27-.02-.33.02-1.1-.3-1.1h-.39v1.36h-.61v-3.18h1.1c.55,0,.83.32.83.75,0,.29,0,.62-.34.76.17.16.27.41.29.65h0Z"/>
  <path class="cls-3" d="M46.69,36.74h-.46v.86h.34c.56,0,.55-.86.12-.86Z"/>
  <path class="cls-5" d="M32.89,39.47h-.61v-2.69h-.7v-.54h2.03v.54h-.71v2.69ZM36.84,39.47v-2.69h-.7v-.54h2.03v.54h-.72v2.69h-.61ZM38.44,36.25h2.03v.55h-.72v2.68h-.61v-2.68h-.7v-.55ZM49.07,36.8v2.69h-.61v-2.69h-.7v-.55h2.03v.55h-.71ZM35.2,38.55v-2.29h.6v2.24c0,1.34-1.94,1.34-1.94.04v-2.28h.6v2.3c0,.5.75.5.75,0h0Z"/>
  <path class="cls-1" d="M36.58,40.96c.18-.15.43-.37.73-.55.26-.17-.03.22-.05.38-.05.44-.38.49-.75.41-.07-.02-.04-.14.07-.24"/>
  <path class="cls-4" d="M51.95,51.25h15.61s.69-8.63.69-8.63h-16.3v8.63h0ZM38.78,78.08l-16.1-.03c3.32,2.98,11,8.55,16.05,10.81l.05-10.78h0Z"/>
  <path class="cls-5" d="M27.14,44.1v1.38c-.64-.47-3.6-.82-5.42-.11-.44.17-1.88.79-2.53,1.31l-1.84,1.45c-.18.15-.2.47-.2.71,0,.54-.63.95-.98.83-.29-.1-.68-.15-1.04-.07-.38.08-.73-.4-.76-.68-.05-.34.22-.79.24-.94.02-.14-.07-.69.43-1.02.23-.15.55-.14.78-.02.07.04.15.05.22.03.08-.03.3-.23.36-.28.02-.33-.02-.84,0-1.13.07-.56.11-.87.28-1.41.15-.47.47-1.14.7-1.53.43-.69,1.27-1.36,1.9-1.31-.25.33-.33.5-.51.83-.33.61-.65,1.62-.79,2.31-.1.44-.15.78-.12,1.25.48-.36.99-.65,1.32-.84.16-.81.44-1.59.82-2.33.41-.78,1.51-1.62,2.23-1.55-.68.73-1.16,1.75-1.34,2.41-.07.26-.16.56-.12.73.27-.15.83-.29,1.09-.32.18-.45.42-.99.63-1.31.64-.98,1.64-1.58,2.22-1.55-.45.6-.83,1.15-1.11,1.96-.08.24-.12.49-.12.61.35-.06.9-.06,1.12-.06.6-.53.54-.68,1.19-1.18.41-.32,1.17-.75,1.35-.78v.96c-.31.28-.94.88-1.06,1.19.27.1.81.27,1.06.44Z"/>
  <path class="cls-3" d="M44.36,38.21l-.29-1.29-.28,1.29h.57Z"/>
  <path class="cls-5" d="M68.8,34.32h-16.8v7.44l16.28.02.5-7.17.02-.29h0ZM69.58,24.05l.15-2.42c-10.54-3.25-20.29-4.23-29.42-4.23v6.61s29.27.04,29.27.04h0ZM28.69,59.36c-1.14-2.11-1.59-4.42-1.59-6.69l-15.5.02.48,6.68h16.61ZM38.73,76.96v-6.96s-23.2-.03-23.2-.03c1.51,2.4,3.44,4.61,5.7,6.81.06.06.13.12.19.19h17.31s0-.01,0-.01Z"/>
</svg>