<?xml version="1.0" encoding="UTF-8"?>
<svg id="Layer_1" data-name="Layer 1" xmlns="http://www.w3.org/2000/svg" viewBox="0 0 96.9 96.49">
  <defs>
    <style>
      .cls-1 {
        fill: #e72629;
        stroke-width: 0px;
      }
    </style>
  </defs>
  <path class="cls-1" d="M48.46,96.49l13.56-76.24c12.92,0,17,1.42,17.59,7.2,0,0,8.67-3.23,13.04-9.8-17.06-7.91-34.2-8.26-34.2-8.26l-10,12.18h.02s-10-12.18-10-12.18c0,0-17.14.36-34.2,8.26,4.37,6.56,13.04,9.8,13.04,9.8.59-5.78,4.66-7.2,17.5-7.21l13.67,76.25Z"/>
  <path class="cls-1" d="M48.45,5.87c13.79-.11,29.58,2.13,45.74,9.18,2.16-3.89,2.72-5.61,2.72-5.61C79.24,2.45,62.69.06,48.45,0,34.2.06,17.66,2.45,0,9.44c0,0,.79,2.12,2.71,5.61,16.16-7.04,31.94-9.28,45.74-9.18h0Z"/>
</svg>