<?xml version="1.0" encoding="UTF-8"?>
<svg id="Layer_1" data-name="Layer 1" xmlns="http://www.w3.org/2000/svg" viewBox="0 0 2289.13 2289.14">
  <defs>
    <style>
      .cls-1 {
        fill: #295ca7;
      }

      .cls-1, .cls-2 {
        fill-rule: evenodd;
        stroke-width: 0px;
      }

      .cls-2 {
        fill: #fff;
      }
    </style>
  </defs>
  <path class="cls-1" d="M1145.04,0C1775.25,0,2289.13,513.91,2289.13,1145.04s-513.9,1144.11-1144.09,1144.11S0,1774.29,0,1145.04C-.01,513.9,514.84,0,1145.04,0h0Z"/>
  <path class="cls-2" d="M1145.04,145.36c549.54,0,998.77,449.2,998.77,999.69s-449.21,997.81-998.77,997.81S146.3,1694.59,146.3,1145.04,595.48,145.36,1145.04,145.36h0ZM476.38,607.68l358.24,929.35,131.28-339.48h344.17l131.27,339.48,362-940.61c-63.88-77.07-140.67-142.43-226.96-193.17l-251.31,692.08h-354.5l-252.24-694.91c-92.84,53.46-174.43,123.8-241.96,207.26h0ZM1947.79,841.2l-407.95,1064.39c273.86-143.48,462.33-430.44,462.33-760.54,0-106.91-18.74-209.14-54.37-303.86ZM1361.65,1974.97l-2.79-21.57-221.34-573.93-221.31,573.93-.93,17.83c73.14,20.61,150.04,30.94,229.76,30.94,75.01,0,147.23-9.37,216.61-27.2ZM733.34,1896.2L335.73,859.95c-31.89,89.09-48.77,184.74-48.77,285.08,0,322.6,180.06,605.8,446.38,751.17h0ZM1145.04,286.96c75.01,0,149.1,9.39,219.44,28.13l-216.63,599.25-217.57-600.18c70.14-18.15,142.31-27.29,214.76-27.2Z"/>
</svg>